<svg width="1347" height="399" viewBox="0 0 1347 399" fill="none" xmlns="http://www.w3.org/2000/svg">
<path d="M148.107 217.747V227.879C148.107 242.853 142.736 255.67 131.994 266.331C121.252 276.91 108.272 282.2 93.0537 282.2C77.7542 282.2 64.7741 276.91 54.1133 266.331C43.3711 255.67 38 242.853 38 227.879V152.073C38 137.099 43.3711 124.322 54.1133 113.743C64.8555 103.082 77.8356 97.7518 93.0537 97.7518C108.435 97.7518 121.415 103.082 131.994 113.743C142.736 124.485 148.107 137.262 148.107 152.073V153.172L128.576 162.083V151.707C128.576 142.023 125.077 133.722 118.078 126.805C111.079 119.887 102.738 116.429 93.0537 116.429C83.2067 116.429 74.8245 119.887 67.9072 126.805C60.9899 133.64 57.5312 141.941 57.5312 151.707V228.245C57.5312 237.929 60.9899 246.23 67.9072 253.147C74.8245 260.065 83.2067 263.523 93.0537 263.523C102.738 263.523 111.079 260.065 118.078 253.147C125.077 246.311 128.576 238.011 128.576 228.245V226.78L148.107 217.747Z" fill="white"/>
<path d="M191.945 235.935C191.945 243.422 194.672 249.689 200.124 254.734C205.658 259.861 211.965 262.425 219.045 262.425C225.881 262.425 231.903 259.861 237.111 254.734C242.157 249.77 244.761 243.504 244.924 235.935V191.746C244.761 184.178 242.157 177.911 237.111 172.947C231.903 167.82 225.393 165.257 217.58 165.257C210.744 165.257 204.763 167.82 199.636 172.947C194.59 177.993 192.027 184.015 191.945 191.013V235.935ZM172.414 191.38C172.414 178.684 176.89 167.861 185.842 158.909C194.794 149.957 205.617 145.481 218.312 145.481C231.008 145.481 241.872 149.957 250.905 158.909C259.938 167.861 264.455 178.684 264.455 191.38V236.302C264.455 248.997 259.938 259.82 250.905 268.772C241.872 277.724 231.008 282.2 218.312 282.2C205.617 282.2 194.794 277.724 185.842 268.772C176.89 259.82 172.414 248.997 172.414 236.302V191.38Z" fill="white"/>
<path d="M317.326 235.935C317.326 243.422 320.052 249.689 325.505 254.734C331.039 259.861 337.346 262.425 344.426 262.425C351.262 262.425 357.284 259.861 362.492 254.734C367.538 249.77 370.142 243.504 370.305 235.935V191.746C370.142 184.178 367.538 177.911 362.492 172.947C357.284 167.82 350.773 165.257 342.961 165.257C336.125 165.257 330.144 167.82 325.017 172.947C319.971 177.993 317.408 184.015 317.326 191.013V235.935ZM389.836 97.7518V236.302C389.836 248.997 385.319 259.82 376.286 268.772C367.253 277.724 356.389 282.2 343.693 282.2C330.998 282.2 320.174 277.724 311.223 268.772C302.271 259.82 297.795 248.997 297.795 236.302V191.38C297.795 178.684 302.271 167.861 311.223 158.909C320.174 149.957 330.998 145.481 343.693 145.481C353.703 145.481 362.574 148.248 370.305 153.782V106.297L389.836 97.7518Z" fill="white"/>
<path d="M495.686 235.081L515.217 226.536V236.302C515.217 248.997 510.741 259.82 501.789 268.772C492.837 277.724 482.014 282.2 469.318 282.2C456.623 282.2 445.759 277.724 436.726 268.772C427.692 259.82 423.176 248.997 423.176 236.302V154.026L442.707 145.481V235.935C442.87 243.504 445.474 249.77 450.52 254.734C455.728 259.861 462.238 262.425 470.051 262.425C476.887 262.425 482.868 259.658 487.995 254.124C493.122 248.59 495.686 242.242 495.686 235.081ZM421.467 125.34C418.374 122.166 416.828 118.341 416.828 113.865C416.828 109.389 418.374 105.605 421.467 102.513C424.559 99.3387 428.303 97.7518 432.697 97.7518C437.092 97.7518 440.835 99.3387 443.928 102.513C447.02 105.605 448.566 109.389 448.566 113.865C448.566 118.341 447.02 122.166 443.928 125.34C440.835 128.432 437.092 129.978 432.697 129.978C428.303 129.978 424.559 128.432 421.467 125.34Z" fill="white"/>
<path d="M548.557 282.2V191.38C548.557 178.684 553.033 167.861 561.984 158.909C570.936 149.957 581.76 145.481 594.455 145.481C607.15 145.481 618.015 149.957 627.048 158.909C636.081 167.861 640.598 178.684 640.598 191.38V273.655L621.066 282.2V191.746C620.904 184.178 618.299 177.911 613.254 172.947C608.046 167.82 601.901 165.257 594.821 165.257C587.497 165.257 581.19 167.861 575.9 173.069C570.692 178.115 568.088 184.218 568.088 191.38C568.088 191.542 568.088 191.665 568.088 191.746V273.655L548.557 282.2Z" fill="white"/>
<path d="M746.447 284.763V273.899C738.716 279.433 729.846 282.2 719.836 282.2C707.141 282.2 696.317 277.724 687.365 268.772C678.413 259.82 673.938 248.997 673.938 236.302V191.38C673.938 178.684 678.413 167.861 687.365 158.909C696.317 149.957 707.141 145.481 719.836 145.481C732.531 145.481 743.396 149.957 752.429 158.909C761.462 167.861 765.979 178.684 765.979 191.38V285.13C765.979 297.825 761.462 308.649 752.429 317.6C743.396 326.552 732.531 331.028 719.836 331.028C707.141 331.028 696.317 326.552 687.365 317.6C681.669 311.904 677.803 305.475 675.769 298.313L695.178 294.163C696.48 297.662 698.636 300.795 701.647 303.562C707.263 308.689 713.57 311.253 720.568 311.253C727.404 311.253 733.426 308.689 738.635 303.562C743.68 298.598 746.284 292.332 746.447 284.763ZM693.469 235.935C693.469 243.422 696.195 249.689 701.647 254.734C707.181 259.861 713.488 262.425 720.568 262.425C727.404 262.425 733.426 259.861 738.635 254.734C743.68 249.77 746.284 243.504 746.447 235.935V191.746C746.284 184.178 743.68 177.911 738.635 172.947C733.426 167.82 726.916 165.257 719.104 165.257C712.268 165.257 706.286 167.82 701.159 172.947C696.114 177.993 693.55 184.015 693.469 191.013V235.935Z" fill="white"/>
<path d="M892.263 273.6C892.263 271.733 893.263 268.933 895.263 265.2C899.397 257.067 902.997 248.333 906.063 239C909.263 229.533 911.797 216.533 913.663 200C910.73 198.133 908.263 195.667 906.263 192.6C904.397 189.4 902.997 186.267 902.063 183.2C902.197 180.267 904.063 177.933 907.663 176.2C911.397 174.333 915.397 173.4 919.663 173.4C925.797 173.4 930.063 175.467 932.463 179.6C934.997 183.6 936.263 190.067 936.263 199C936.263 203.8 935.263 210.667 933.263 219.6C931.263 228.533 928.73 237.4 925.663 246.2C922.597 255 919.397 261.8 916.063 266.6C923.93 264.067 933.53 262.8 944.863 262.8L954.063 263C958.063 263.267 961.263 263.4 963.663 263.4C964.597 263.4 965.397 262.867 966.063 261.8C966.863 260.733 967.397 259.533 967.663 258.2C969.13 249.133 971.997 236.6 976.263 220.6C980.53 204.6 985.063 189.533 989.863 175.4C994.797 161.133 998.93 151.6 1002.26 146.8C1005.6 142 1008.93 139.6 1012.26 139.6C1015.33 139.6 1018 140.267 1020.26 141.6C1022.66 142.8 1024.13 144.6 1024.66 147C1019.2 155.133 1014.33 166 1010.06 179.6C1005.93 193.2 1001.46 210.133 996.663 230.4C995.997 233.2 994.663 238.6 992.663 246.6C990.663 254.467 988.863 260.933 987.263 266C985.397 272.267 983.397 276.8 981.263 279.6C979.13 282.267 975.797 283.6 971.263 283.6C968.33 283.6 965.597 283.4 963.063 283C960.663 282.6 959.13 282.333 958.463 282.2C953.397 281 947.997 280.4 942.263 280.4C938.797 280.4 933.863 281.133 927.463 282.6C919.73 284.2 913.863 285 909.863 285C903.73 285 899.263 284.067 896.463 282.2C893.663 280.333 892.263 277.467 892.263 273.6Z" fill="white"/>
<path d="M985.812 141C986.478 141.4 987.012 142.267 987.412 143.6C987.678 144.8 987.812 145.933 987.812 147C987.812 149.4 986.745 151.133 984.612 152.2C982.478 153.267 980.012 153.8 977.212 153.8C974.945 153.8 972.745 153.067 970.612 151.6C968.478 150 965.612 147.533 962.012 144.2C956.945 139.4 952.412 135.733 948.412 133.2C944.278 130.533 939.612 129.2 934.412 129.2C930.412 129.2 926.278 130 922.012 131.6C917.612 133.067 915.412 135.2 915.412 138C915.412 140.133 916.945 142 920.012 143.6C923.078 145.067 926.678 146.2 930.812 147C934.812 147.667 938.145 148 940.812 148L950.212 147.8C951.812 147.667 953.878 147.6 956.412 147.6C959.212 147.6 960.612 148.4 960.612 150C960.612 152.4 959.412 154.467 957.012 156.2C954.612 157.933 951.812 159.267 948.612 160.2C945.278 161.133 942.412 161.6 940.012 161.6C932.678 161.6 925.478 160.733 918.412 159C911.212 157.267 905.345 154.733 900.812 151.4C896.278 148.067 894.012 144.067 894.012 139.4C894.012 134.333 896.345 129.8 901.012 125.8C905.678 121.8 911.345 118.733 918.012 116.6C924.545 114.333 930.345 113.2 935.412 113.2C943.678 113.2 950.678 114.667 956.412 117.6C962.012 120.4 967.612 125.067 973.212 131.6C975.212 134 977.412 136 979.812 137.6C982.078 139.2 984.078 140.333 985.812 141Z" fill="white"/>
<path d="M952.688 80.8C952.688 80.1333 952.288 79.8 951.488 79.8C950.155 79.8 948.488 80.6 946.488 82.2C944.355 83.8 943.022 84.6 942.488 84.6C941.155 84.6 939.888 83.4667 938.688 81.2C937.355 78.9333 936.688 76.8 936.688 74.8C936.688 73.2 937.822 71.4 940.088 69.4C942.222 67.4 944.822 65.6667 947.888 64.2C950.955 62.7333 953.688 62 956.088 62C960.755 62 964.622 62.8667 967.688 64.6C970.622 66.3333 972.088 69.3333 972.088 73.6C972.088 74.5333 971.822 76.1333 971.288 78.4C970.755 80.6667 970.088 82.7333 969.288 84.6C975.688 80.8666 983.155 77.2 991.688 73.6C1000.35 69.8667 1006.69 68 1010.69 68C1013.89 68 1016.62 68.7333 1018.89 70.2C1021.15 71.5333 1022.29 73.7333 1022.29 76.8C1022.29 77.6 1021.69 78.6 1020.49 79.8C1019.42 81 1018.29 81.6 1017.09 81.6C1014.55 81.6 1009.02 83.2 1000.49 86.4C992.088 89.4667 983.822 93 975.688 97C967.422 101 962.022 104.333 959.488 107C957.888 108.067 956.355 108.6 954.888 108.6C952.888 108.6 950.955 107.533 949.088 105.4C947.088 103.267 946.088 101.067 946.088 98.8C946.088 98.2667 946.222 97.7333 946.488 97.2C947.288 95.0667 948.088 93.2 948.888 91.6C951.422 85.7333 952.688 82.1333 952.688 80.8Z" fill="white"/>
<path d="M1065.45 286.6C1057.85 286.6 1050.45 279.733 1043.25 266C1036.18 252.133 1030.12 236.8 1025.05 220C1020.12 203.2 1017.65 192.933 1017.65 189.2C1017.65 186.267 1018.85 183.267 1021.25 180.2C1023.65 177.133 1025.78 175.6 1027.65 175.6C1028.72 175.6 1029.45 176.267 1029.85 177.6C1034.38 194.267 1039.85 211.6 1046.25 229.6C1052.65 247.467 1058.72 258.733 1064.45 263.4C1065.92 259.933 1068.45 250.733 1072.05 235.8C1075.78 220.867 1078.12 210.333 1079.05 204.2C1076.38 201.8 1074.05 198.933 1072.05 195.6C1070.18 192.133 1069.25 188.8 1069.25 185.6C1069.25 181.867 1070.12 178.8 1071.85 176.4C1073.72 174 1076.78 172.8 1081.05 172.8C1088.12 172.8 1093.65 174.533 1097.65 178C1101.78 181.333 1103.85 185.733 1103.85 191.2C1103.85 198.4 1100.65 214 1094.25 238C1091.45 248.4 1088.98 256.8 1086.85 263.2C1084.72 269.467 1081.85 274.933 1078.25 279.6C1074.78 284.133 1070.52 286.467 1065.45 286.6Z" fill="white"/>
<path d="M1158.23 113.4C1156.09 116.333 1152.56 120.4 1147.63 125.6C1142.69 130.667 1137.76 135.2 1132.83 139.2C1127.89 143.2 1124.03 145.2 1121.23 145.2C1118.29 145.2 1115.36 143.733 1112.43 140.8C1109.49 137.733 1107.09 134.067 1105.23 129.8C1103.36 125.533 1102.43 121.667 1102.43 118.2C1102.43 111.133 1103.83 105.8 1106.63 102.2C1109.29 98.6 1114.16 96.8 1121.23 96.8C1121.76 97.2 1122.43 98 1123.23 99.2C1124.03 100.267 1124.63 101.067 1125.03 101.6C1122.49 107.2 1121.23 112.6 1121.23 117.8C1121.23 119.4 1121.56 121.133 1122.23 123C1122.89 124.733 1123.63 126.067 1124.43 127C1127.09 124.6 1129.23 122.6 1130.83 121C1137.36 114.6 1143.23 109.467 1148.43 105.6C1153.63 101.6 1159.16 98.8667 1165.03 97.4C1168.63 97.4 1171.96 99.3333 1175.03 103.2C1178.09 106.933 1179.63 110.8 1179.63 114.8L1172.83 140.4C1152.96 216 1142.56 256.067 1141.63 260.6C1141.36 261.667 1141.23 262.933 1141.23 264.4C1141.23 265.733 1141.43 266.6 1141.83 267C1142.23 267.267 1142.69 267.4 1143.23 267.4C1144.96 267.4 1146.83 266.533 1148.83 264.8C1150.83 263.067 1152.36 261.133 1153.43 259C1157.03 260.2 1159.43 261.867 1160.63 264C1161.83 266.133 1162.43 268.533 1162.43 271.2C1162.43 275.867 1159.56 279.667 1153.83 282.6C1148.09 285.4 1141.56 286.8 1134.23 286.8C1130.23 286.8 1126.63 284.933 1123.43 281.2C1120.36 277.333 1118.83 272.733 1118.83 267.4C1118.83 264.6 1124.49 241.333 1135.83 197.6C1147.16 153.733 1154.63 125.667 1158.23 113.4Z" fill="white"/>
<path d="M1270.01 281C1268.41 284.2 1266.34 286.667 1263.81 288.4C1261.28 290.133 1257.28 291 1251.81 291C1247.54 291 1245.41 288.933 1245.41 284.8C1245.41 284 1245.54 282.8 1245.81 281.2L1249.41 265.8C1250.34 262.2 1251.21 258.8 1252.01 255.6C1252.81 252.4 1253.54 249.533 1254.21 247C1257.14 236.2 1259.28 227.533 1260.61 221C1262.08 214.333 1262.81 208.133 1262.81 202.4C1262.81 192.667 1256.41 187.8 1243.61 187.8C1235.61 187.8 1227.81 189.133 1220.21 191.8C1212.74 194.333 1207.21 197.867 1203.61 202.4C1208.28 202.8 1212.41 204.333 1216.01 207C1219.61 209.533 1221.41 212.8 1221.41 216.8C1221.41 218 1221.21 219.333 1220.81 220.8L1216.01 238C1212.54 249.867 1209.88 259.4 1208.01 266.6C1206.14 273.8 1205.14 279.733 1205.01 284.4C1202.74 286 1199.94 286.8 1196.61 286.8C1192.88 286.8 1190.01 286 1188.01 284.4C1186.14 282.933 1185.21 280.933 1185.21 278.4C1185.21 270.4 1186.48 260.933 1189.01 250C1191.54 239.067 1195.01 227.733 1199.41 216C1198.08 215.067 1195.81 213.933 1192.61 212.6C1189.28 211.133 1186.81 209.8 1185.21 208.6C1183.74 207.267 1183.01 205.467 1183.01 203.2C1183.01 197.333 1185.81 191.933 1191.41 187C1197.14 181.933 1204.74 177.933 1214.21 175C1223.68 172.067 1233.74 170.6 1244.41 170.6C1251.48 170.6 1258.08 171.933 1264.21 174.6C1270.48 177.133 1275.48 181 1279.21 186.2C1283.08 191.267 1285.01 197.533 1285.01 205C1285.01 211.933 1284.14 219.467 1282.41 227.6C1280.81 235.6 1278.54 245.333 1275.61 256.8C1272.94 266.933 1271.08 275 1270.01 281Z" fill="white"/>
<path d="M1301.58 115C1300.78 117.933 1299.72 121.067 1298.38 124.4C1297.18 127.6 1296.32 129.8 1295.78 131C1293.25 136.867 1291.25 142.333 1289.78 147.4C1289.65 147.8 1289.38 148.933 1288.98 150.8C1288.58 152.533 1287.58 154.067 1285.98 155.4C1284.38 156.6 1282.12 157.2 1279.18 157.2C1275.45 157.2 1273.58 153.2 1273.58 145.2C1273.58 142 1274.25 136.933 1275.58 130C1276.92 123.067 1278.78 116.867 1281.18 111.4C1283.58 105.8 1286.45 103 1289.78 103C1292.72 103 1295.52 103.867 1298.18 105.6C1300.85 107.2 1302.32 109.2 1302.58 111.6C1302.58 112.133 1302.45 112.733 1302.18 113.4C1301.92 113.933 1301.72 114.467 1301.58 115Z" fill="white"/>
<path fill-rule="evenodd" clip-rule="evenodd" d="M1304.78 307.199C1145.97 304.578 1051.66 307.366 876.658 317.691C873.901 317.854 871.535 315.751 871.372 312.995C871.209 310.238 873.312 307.871 876.069 307.709C1051.26 297.372 1145.83 294.574 1304.95 297.201C1307.71 297.246 1309.91 299.521 1309.86 302.283C1309.82 305.044 1307.54 307.245 1304.78 307.199Z" fill="white"/>
<path fill-rule="evenodd" clip-rule="evenodd" d="M1304.78 327.199C1145.97 324.578 1051.66 327.366 876.658 337.691C873.901 337.854 871.535 335.751 871.372 332.995C871.209 330.238 873.312 327.871 876.069 327.709C1051.26 317.372 1145.83 314.574 1304.95 317.201C1307.71 317.246 1309.91 319.521 1309.86 322.283C1309.82 325.044 1307.54 327.245 1304.78 327.199Z" fill="white"/>
</svg>
