<svg width="226" height="104" viewBox="0 0 226 104" fill="none" xmlns="http://www.w3.org/2000/svg">
<path d="M46.8164 78.7754H0.673828L5.45898 67.8379L46.8164 5.49414L57.7539 0.708984V67.8379H67.9395L63.1543 78.7754H57.7539V99.2148L46.8164 104V78.7754ZM46.8164 67.8379V23.9512L17.6953 67.8379H46.8164Z" fill="black"/>
<path d="M93.0273 30.9238V73.7852C93.0273 75.2435 93.1641 76.6335 93.4375 77.9551L124.609 14.9961C121.191 12.444 117.295 11.168 112.92 11.168C107.406 11.168 102.712 13.1048 98.8379 16.9785C94.9642 20.8066 93.0273 25.4551 93.0273 30.9238ZM143.75 31.1289V73.5801C143.75 81.9655 140.742 89.1432 134.727 95.1133C128.711 101.038 121.442 104 112.92 104C104.352 104 97.0833 101.038 91.1133 95.1133C85.0977 89.1432 82.0898 81.9655 82.0898 73.5801V31.1289C82.0898 22.7435 85.0977 15.5885 91.1133 9.66406C97.1289 3.69401 104.398 0.708984 112.92 0.708984C121.442 0.708984 128.711 3.69401 134.727 9.66406C140.742 15.5885 143.75 22.7435 143.75 31.1289ZM131.924 24.9082L100.205 88.9609C103.805 92.0143 108.044 93.541 112.92 93.541C118.343 93.541 123.014 91.6042 126.934 87.7305C130.807 83.9023 132.767 79.2539 132.812 73.7852V30.9238C132.812 28.7819 132.516 26.7767 131.924 24.9082Z" fill="black"/>
<path d="M204.043 78.7754H157.9L162.686 67.8379L204.043 5.49414L214.98 0.708984V67.8379H225.166L220.381 78.7754H214.98V99.2148L204.043 104V78.7754ZM204.043 67.8379V23.9512L174.922 67.8379H204.043Z" fill="black"/>
</svg>
