<svg width="25" height="25" viewBox="0 0 25 25" fill="none" xmlns="http://www.w3.org/2000/svg">
<path d="M5.68301 17.7189L6.54904 17.2189L5.68301 17.7189ZM4.81699 8.21891L4.83494 8.25L6.56699 7.25L6.54904 7.21891L4.81699 8.21891ZM4 15.5622V8.43782H2V15.5622H4ZM6.56699 17.25L6.54904 17.2189L4.81699 18.2189L4.83494 18.25L6.56699 17.25ZM19 16H9.59808V18H19V16ZM20 9V15H22V9H20ZM9.59808 8H19V6H9.59808V8ZM9.59808 6C8.70491 6 7.87959 6.4765 7.43301 7.25L9.16506 8.25C9.25438 8.0953 9.41944 8 9.59808 8V6ZM22 9C22 7.34315 20.6569 6 19 6V8C19.5523 8 20 8.44772 20 9H22ZM19 18C20.6569 18 22 16.6569 22 15H20C20 15.5523 19.5523 16 19 16V18ZM9.16506 18.25C9.25438 18.0953 9.41944 18 9.59808 18V16C8.70491 16 7.8796 16.4765 7.43301 17.25L9.16506 18.25ZM4.83494 18.25C5.79719 19.9167 8.20281 19.9167 9.16506 18.25L7.43301 17.25C7.24056 17.5833 6.75944 17.5833 6.56699 17.25L4.83494 18.25ZM4.43782 18C4.59424 18 4.73878 18.0834 4.81699 18.2189L6.54904 17.2189C6.11356 16.4646 5.30877 16 4.43782 16V18ZM2 15.5622C2 16.9085 3.09145 18 4.43782 18V16C4.19602 16 4 15.804 4 15.5622H2ZM4.43782 6C3.09145 6 2 7.09145 2 8.43782H4C4 8.19602 4.19602 8 4.43782 8V6ZM4.83494 8.25C5.79719 9.91667 8.20281 9.91667 9.16506 8.25L7.43301 7.25C7.24056 7.58333 6.75944 7.58333 6.56699 7.25L4.83494 8.25ZM6.54904 7.21891C6.11356 6.46465 5.30877 6 4.43782 6V8C4.59424 8 4.73878 8.08345 4.81699 8.21891L6.54904 7.21891Z" fill="#606060"/>
</svg>
