<svg width="626" height="181" viewBox="0 0 626 181" fill="none" xmlns="http://www.w3.org/2000/svg">
<mask id="mask0_844_1217" style="mask-type:alpha" maskUnits="userSpaceOnUse" x="0" y="0" width="626" height="181">
<rect width="626" height="181" fill="url(#paint0_linear_844_1217)"/>
</mask>
<g mask="url(#mask0_844_1217)">
<g filter="url(#filter0_d_844_1217)">
<g clip-path="url(#clip0_844_1217)">
<rect y="53.5" width="70" height="70" rx="35" fill="#FFB524"/>
<rect opacity="0.15" x="-9.79999" y="96.1005" width="71.5127" height="19.0199" transform="rotate(-45 -9.79999 96.1005)" fill="white"/>
<rect opacity="0.15" x="8.8667" y="111.5" width="71.5127" height="10.2007" transform="rotate(-45 8.8667 111.5)" fill="white"/>
</g>
<rect x="2.33333" y="55.8333" width="65.3333" height="65.3333" rx="32.6667" stroke="#FF9224" stroke-width="4.66667"/>
</g>
<g filter="url(#filter1_d_844_1217)">
<g clip-path="url(#clip1_844_1217)">
<rect x="74" y="16" width="70" height="70" rx="35" fill="#FFB524"/>
<rect opacity="0.15" x="64.2" y="58.6005" width="71.5127" height="19.0199" transform="rotate(-45 64.2 58.6005)" fill="white"/>
<rect opacity="0.15" x="82.8667" y="74.0004" width="71.5127" height="10.2007" transform="rotate(-45 82.8667 74.0004)" fill="white"/>
</g>
<rect x="76.3333" y="18.3333" width="65.3333" height="65.3333" rx="32.6667" stroke="#FF9224" stroke-width="4.66667"/>
</g>
<g filter="url(#filter2_d_844_1217)">
<rect x="157.398" y="1.0564" width="70" height="70" rx="35" fill="#FF8833"/>
<rect x="159.732" y="3.38973" width="65.3333" height="65.3333" rx="32.6667" stroke="#FF7733" stroke-width="4.66667"/>
</g>
<g filter="url(#filter3_d_844_1217)">
<rect x="241.026" y="13.9082" width="70" height="70" rx="35" fill="#F3F3F3"/>
<rect x="243.359" y="16.2415" width="65.3333" height="65.3333" rx="32.6667" stroke="#DFDFDF" stroke-width="4.66667"/>
</g>
<g filter="url(#filter4_d_844_1217)">
<rect x="316.64" y="54.3396" width="70" height="70" rx="35" fill="#F3F3F3"/>
<rect x="318.973" y="56.6729" width="65.3333" height="65.3333" rx="32.6667" stroke="#DFDFDF" stroke-width="4.66667"/>
</g>
<g filter="url(#filter5_d_844_1217)">
<rect x="390.854" y="93.3887" width="70" height="70" rx="35" fill="#F3F3F3"/>
<rect x="393.187" y="95.722" width="65.3333" height="65.3333" rx="32.6667" stroke="#DFDFDF" stroke-width="4.66667"/>
</g>
<g filter="url(#filter6_d_844_1217)">
<rect x="474.168" y="105.93" width="70" height="70" rx="35" fill="#F3F3F3"/>
<rect x="476.501" y="108.263" width="65.3333" height="65.3333" rx="32.6667" stroke="#DFDFDF" stroke-width="4.66667"/>
</g>
<g filter="url(#filter7_d_844_1217)">
<rect x="555.656" y="91.1807" width="70" height="70" rx="35" fill="#F3F3F3"/>
<rect x="557.99" y="93.514" width="65.3333" height="65.3333" rx="32.6667" stroke="#DFDFDF" stroke-width="4.66667"/>
</g>
</g>
<circle cx="571" cy="91" r="26.25" stroke="#FF7733" stroke-width="2.5"/>
<path d="M562 82.6085C562 81.0376 563.728 80.0799 565.06 80.9125L579.286 89.804C580.54 90.5873 580.54 92.4127 579.286 93.196L565.06 102.088C563.728 102.92 562 101.962 562 100.392V82.6085Z" stroke="#FF7733" stroke-width="2.5" stroke-linecap="round" stroke-linejoin="round"/>
<path d="M472.408 87.956C473.368 87.956 474.148 88.256 474.748 88.856C475.348 89.456 475.648 90.248 475.648 91.232V98H474.352V91.232C474.352 90.596 474.172 90.086 473.812 89.702C473.452 89.306 472.984 89.108 472.408 89.108H470.5C469.9 89.108 469.414 89.312 469.042 89.72C468.67 90.116 468.484 90.644 468.484 91.304V96.902H468.79C469.474 96.902 470.08 96.728 470.608 96.38C471.148 96.02 471.538 95.546 471.778 94.958C471.634 95.03 471.454 95.066 471.238 95.066C470.746 95.066 470.338 94.91 470.014 94.598C469.702 94.286 469.546 93.872 469.546 93.356C469.546 92.828 469.708 92.408 470.032 92.096C470.368 91.772 470.812 91.61 471.364 91.61C471.916 91.61 472.354 91.778 472.678 92.114C473.002 92.438 473.164 92.882 473.164 93.446C473.164 94.286 472.96 95.054 472.552 95.75C472.156 96.446 471.604 96.998 470.896 97.406C470.188 97.802 469.408 98 468.556 98H467.188V91.304C467.188 90.296 467.488 89.486 468.088 88.874C468.7 88.262 469.504 87.956 470.5 87.956H472.408ZM470.5 93.356C470.5 93.62 470.578 93.83 470.734 93.986C470.89 94.142 471.1 94.22 471.364 94.22C471.628 94.22 471.838 94.142 471.994 93.986C472.15 93.83 472.228 93.62 472.228 93.356C472.228 93.092 472.15 92.882 471.994 92.726C471.838 92.57 471.628 92.492 471.364 92.492C471.1 92.492 470.89 92.57 470.734 92.726C470.578 92.882 470.5 93.092 470.5 93.356ZM475.646 99.368V103.274C475.646 103.682 475.538 103.988 475.322 104.192C475.094 104.408 474.77 104.516 474.35 104.516H472.028C471.656 104.516 471.47 104.342 471.47 103.994V102.554C471.302 102.626 471.11 102.662 470.894 102.662C470.402 102.662 470.006 102.506 469.706 102.194C469.394 101.894 469.238 101.498 469.238 101.006C469.238 100.502 469.4 100.094 469.724 99.782C470.036 99.482 470.45 99.332 470.966 99.332C471.482 99.332 471.902 99.482 472.226 99.782C472.538 100.094 472.694 100.502 472.694 101.006V103.472H474.062C474.326 103.472 474.458 103.328 474.458 103.04V99.368H475.646ZM470.966 101.834C471.218 101.834 471.422 101.756 471.578 101.6C471.722 101.456 471.794 101.258 471.794 101.006C471.794 100.754 471.722 100.55 471.578 100.394C471.422 100.25 471.218 100.178 470.966 100.178C470.714 100.178 470.516 100.25 470.372 100.394C470.216 100.55 470.138 100.754 470.138 101.006C470.138 101.258 470.216 101.456 470.372 101.6C470.516 101.756 470.714 101.834 470.966 101.834ZM485.114 87.956C485.81 87.956 486.35 88.178 486.734 88.622C487.13 89.066 487.328 89.678 487.328 90.458V98H486.032V90.458C486.032 90.05 485.948 89.732 485.78 89.504C485.624 89.264 485.402 89.144 485.114 89.144H485.042L481.46 98H479.966V91.286C479.798 91.358 479.6 91.394 479.372 91.394C478.844 91.394 478.418 91.238 478.094 90.926C477.782 90.602 477.626 90.182 477.626 89.666C477.626 89.138 477.788 88.718 478.112 88.406C478.448 88.082 478.892 87.92 479.444 87.92C479.996 87.92 480.434 88.082 480.758 88.406C481.094 88.718 481.262 89.138 481.262 89.666V95.786H481.28L484.358 87.956H485.114ZM479.444 90.53C479.708 90.53 479.918 90.452 480.074 90.296C480.23 90.14 480.308 89.93 480.308 89.666C480.308 89.402 480.23 89.192 480.074 89.036C479.918 88.88 479.708 88.802 479.444 88.802C479.18 88.802 478.97 88.88 478.814 89.036C478.658 89.192 478.58 89.402 478.58 89.666C478.58 89.93 478.658 90.14 478.814 90.296C478.97 90.452 479.18 90.53 479.444 90.53ZM485.841 86.48C484.737 86.48 483.867 86.288 483.231 85.904C482.595 85.508 482.277 84.962 482.277 84.266C482.277 83.774 482.439 83.378 482.763 83.078C483.075 82.766 483.489 82.61 484.005 82.61C484.533 82.61 484.953 82.754 485.265 83.042C485.577 83.33 485.733 83.726 485.733 84.23C485.733 84.47 485.673 84.692 485.553 84.896C485.433 85.1 485.277 85.256 485.085 85.364L485.103 85.382C485.343 85.43 485.625 85.454 485.949 85.454C486.765 85.454 487.407 85.214 487.875 84.734C488.343 84.242 488.589 83.57 488.613 82.718H489.819C489.783 83.894 489.417 84.818 488.721 85.49C488.013 86.15 487.053 86.48 485.841 86.48ZM484.005 85.094C484.257 85.094 484.461 85.022 484.617 84.878C484.761 84.722 484.833 84.518 484.833 84.266C484.833 84.014 484.761 83.816 484.617 83.672C484.461 83.516 484.257 83.438 484.005 83.438C483.753 83.438 483.555 83.516 483.411 83.672C483.255 83.816 483.177 84.014 483.177 84.266C483.177 84.518 483.255 84.722 483.411 84.878C483.555 85.022 483.753 85.094 484.005 85.094ZM489.441 77.868C489.333 79.104 488.937 80.046 488.253 80.694C487.557 81.33 486.591 81.648 485.355 81.648C484.455 81.648 483.771 81.588 483.303 81.468V80.892C483.759 80.868 484.113 80.814 484.365 80.73C484.617 80.646 484.809 80.514 484.941 80.334C484.821 80.358 484.725 80.37 484.653 80.37C484.245 80.37 483.921 80.25 483.681 80.01C483.429 79.77 483.303 79.458 483.303 79.074C483.303 78.654 483.435 78.318 483.699 78.066C483.963 77.814 484.317 77.688 484.761 77.688C485.217 77.688 485.583 77.814 485.859 78.066C486.123 78.306 486.255 78.63 486.255 79.038C486.255 79.35 486.207 79.656 486.111 79.956C486.003 80.256 485.847 80.514 485.643 80.73V80.748C486.459 80.736 487.083 80.496 487.515 80.028C487.935 79.56 488.205 78.84 488.325 77.868H489.441ZM484.095 79.074C484.095 79.266 484.155 79.428 484.275 79.56C484.395 79.68 484.557 79.74 484.761 79.74C484.965 79.74 485.133 79.68 485.265 79.56C485.385 79.44 485.445 79.278 485.445 79.074C485.445 78.87 485.385 78.708 485.265 78.588C485.133 78.468 484.965 78.408 484.761 78.408C484.557 78.408 484.395 78.468 484.275 78.588C484.155 78.708 484.095 78.87 484.095 79.074ZM494.589 87.92C495.141 87.92 495.579 88.082 495.903 88.406C496.239 88.718 496.407 89.138 496.407 89.666V95.876C496.407 96.548 496.233 97.07 495.885 97.442C495.537 97.814 495.051 98 494.427 98H493.653C493.425 98 493.215 97.94 493.023 97.82C492.831 97.7 492.675 97.532 492.555 97.316L489.351 91.574H490.755L493.725 96.884H494.319C494.571 96.884 494.763 96.8 494.895 96.632C495.039 96.452 495.111 96.2 495.111 95.876V91.286C494.955 91.358 494.757 91.394 494.517 91.394C493.989 91.394 493.563 91.238 493.239 90.926C492.927 90.602 492.771 90.182 492.771 89.666C492.771 89.138 492.933 88.718 493.257 88.406C493.593 88.082 494.037 87.92 494.589 87.92ZM494.589 90.53C494.853 90.53 495.063 90.452 495.219 90.296C495.375 90.14 495.453 89.93 495.453 89.666C495.453 89.402 495.375 89.192 495.219 89.036C495.063 88.88 494.853 88.802 494.589 88.802C494.325 88.802 494.115 88.88 493.959 89.036C493.803 89.192 493.725 89.402 493.725 89.666C493.725 89.93 493.803 90.14 493.959 90.296C494.115 90.452 494.325 90.53 494.589 90.53ZM507.404 91.142C507.596 91.298 507.728 91.478 507.8 91.682C507.884 91.886 507.926 92.168 507.926 92.528V98H506.63V92.438C506.63 92.246 506.6 92.108 506.54 92.024C506.492 91.928 506.396 91.88 506.252 91.88L502.094 98H500.726V91.286C500.558 91.358 500.36 91.394 500.132 91.394C499.604 91.394 499.178 91.238 498.854 90.926C498.542 90.602 498.386 90.182 498.386 89.666C498.386 89.138 498.548 88.718 498.872 88.406C499.208 88.082 499.652 87.92 500.204 87.92C500.756 87.92 501.194 88.082 501.518 88.406C501.854 88.718 502.022 89.138 502.022 89.666V96.254L505.532 91.052C505.292 90.884 505.106 90.68 504.974 90.44C504.842 90.2 504.776 89.936 504.776 89.648C504.776 89.132 504.938 88.718 505.262 88.406C505.586 88.082 506.012 87.92 506.54 87.92C507.08 87.92 507.512 88.082 507.836 88.406C508.172 88.718 508.34 89.132 508.34 89.648C508.34 89.972 508.256 90.266 508.088 90.53C507.932 90.782 507.704 90.98 507.404 91.124V91.142ZM506.54 90.512C506.804 90.512 507.014 90.434 507.17 90.278C507.326 90.122 507.404 89.912 507.404 89.648C507.404 89.384 507.326 89.174 507.17 89.018C507.014 88.862 506.804 88.784 506.54 88.784C506.288 88.784 506.084 88.862 505.928 89.018C505.772 89.174 505.694 89.384 505.694 89.648C505.694 89.912 505.766 90.122 505.91 90.278C506.066 90.434 506.276 90.512 506.54 90.512ZM500.204 90.53C500.468 90.53 500.678 90.452 500.834 90.296C500.99 90.14 501.068 89.93 501.068 89.666C501.068 89.402 500.99 89.192 500.834 89.036C500.678 88.88 500.468 88.802 500.204 88.802C499.94 88.802 499.73 88.88 499.574 89.036C499.418 89.192 499.34 89.402 499.34 89.666C499.34 89.93 499.418 90.14 499.574 90.296C499.73 90.452 499.94 90.53 500.204 90.53ZM519.222 88.1V98H517.962C517.482 97.304 516.87 96.698 516.126 96.182C515.394 95.666 514.668 95.336 513.948 95.192V97.802C513.78 97.922 513.558 98.012 513.282 98.072C513.006 98.144 512.706 98.18 512.382 98.18C511.794 98.18 511.314 98.006 510.942 97.658C510.582 97.298 510.402 96.83 510.402 96.254C510.402 95.582 510.606 95.054 511.014 94.67C511.434 94.274 511.98 94.076 512.652 94.076V91.286C512.496 91.358 512.298 91.394 512.058 91.394C511.53 91.394 511.104 91.238 510.78 90.926C510.468 90.602 510.312 90.182 510.312 89.666C510.312 89.138 510.474 88.718 510.798 88.406C511.134 88.082 511.578 87.92 512.13 87.92C512.682 87.92 513.12 88.082 513.444 88.406C513.78 88.718 513.948 89.138 513.948 89.666V94.112C514.656 94.244 515.376 94.52 516.108 94.94C516.84 95.36 517.446 95.84 517.926 96.38V88.1H519.222ZM512.13 90.53C512.394 90.53 512.604 90.452 512.76 90.296C512.916 90.14 512.994 89.93 512.994 89.666C512.994 89.402 512.916 89.192 512.76 89.036C512.604 88.88 512.394 88.802 512.13 88.802C511.866 88.802 511.656 88.88 511.5 89.036C511.344 89.192 511.266 89.402 511.266 89.666C511.266 89.93 511.344 90.14 511.5 90.296C511.656 90.452 511.866 90.53 512.13 90.53ZM512.76 95.084H512.616C512.244 95.084 511.956 95.192 511.752 95.408C511.548 95.612 511.446 95.894 511.446 96.254C511.446 96.566 511.524 96.812 511.68 96.992C511.848 97.16 512.07 97.244 512.346 97.244C512.562 97.244 512.7 97.214 512.76 97.154V95.084ZM527.322 87.956C528.282 87.956 529.062 88.256 529.662 88.856C530.262 89.456 530.562 90.248 530.562 91.232V98H529.266V91.232C529.266 90.596 529.086 90.086 528.726 89.702C528.366 89.306 527.898 89.108 527.322 89.108H525.414C524.814 89.108 524.328 89.312 523.956 89.72C523.584 90.116 523.398 90.644 523.398 91.304V96.902H523.704C524.388 96.902 524.994 96.728 525.522 96.38C526.062 96.02 526.452 95.546 526.692 94.958C526.548 95.03 526.368 95.066 526.152 95.066C525.66 95.066 525.252 94.91 524.928 94.598C524.616 94.286 524.46 93.872 524.46 93.356C524.46 92.828 524.622 92.408 524.946 92.096C525.282 91.772 525.726 91.61 526.278 91.61C526.83 91.61 527.268 91.778 527.592 92.114C527.916 92.438 528.078 92.882 528.078 93.446C528.078 94.286 527.874 95.054 527.466 95.75C527.07 96.446 526.518 96.998 525.81 97.406C525.102 97.802 524.322 98 523.47 98H522.102V91.304C522.102 90.296 522.402 89.486 523.002 88.874C523.614 88.262 524.418 87.956 525.414 87.956H527.322ZM525.414 93.356C525.414 93.62 525.492 93.83 525.648 93.986C525.804 94.142 526.014 94.22 526.278 94.22C526.542 94.22 526.752 94.142 526.908 93.986C527.064 93.83 527.142 93.62 527.142 93.356C527.142 93.092 527.064 92.882 526.908 92.726C526.752 92.57 526.542 92.492 526.278 92.492C526.014 92.492 525.804 92.57 525.648 92.726C525.492 92.882 525.414 93.092 525.414 93.356Z" fill="#ED6012"/>
<path d="M465.748 99.8H488.775V100.7H465.748V99.8ZM488.775 100.679V101.579V100.679ZM488.775 99.8H532.002V100.7H488.775V99.8Z" fill="#ED6012"/>
<defs>
<filter id="filter0_d_844_1217" x="0" y="53.5" width="70" height="73.7333" filterUnits="userSpaceOnUse" color-interpolation-filters="sRGB">
<feFlood flood-opacity="0" result="BackgroundImageFix"/>
<feColorMatrix in="SourceAlpha" type="matrix" values="0 0 0 0 0 0 0 0 0 0 0 0 0 0 0 0 0 0 127 0" result="hardAlpha"/>
<feOffset dy="3.73333"/>
<feComposite in2="hardAlpha" operator="out"/>
<feColorMatrix type="matrix" values="0 0 0 0 0.9 0 0 0 0 0.515294 0 0 0 0 0.127059 0 0 0 1 0"/>
<feBlend mode="normal" in2="BackgroundImageFix" result="effect1_dropShadow_844_1217"/>
<feBlend mode="normal" in="SourceGraphic" in2="effect1_dropShadow_844_1217" result="shape"/>
</filter>
<filter id="filter1_d_844_1217" x="74" y="16" width="70" height="73.7333" filterUnits="userSpaceOnUse" color-interpolation-filters="sRGB">
<feFlood flood-opacity="0" result="BackgroundImageFix"/>
<feColorMatrix in="SourceAlpha" type="matrix" values="0 0 0 0 0 0 0 0 0 0 0 0 0 0 0 0 0 0 127 0" result="hardAlpha"/>
<feOffset dy="3.73333"/>
<feComposite in2="hardAlpha" operator="out"/>
<feColorMatrix type="matrix" values="0 0 0 0 0.9 0 0 0 0 0.515294 0 0 0 0 0.127059 0 0 0 1 0"/>
<feBlend mode="normal" in2="BackgroundImageFix" result="effect1_dropShadow_844_1217"/>
<feBlend mode="normal" in="SourceGraphic" in2="effect1_dropShadow_844_1217" result="shape"/>
</filter>
<filter id="filter2_d_844_1217" x="157.398" y="1.0564" width="70" height="73.7333" filterUnits="userSpaceOnUse" color-interpolation-filters="sRGB">
<feFlood flood-opacity="0" result="BackgroundImageFix"/>
<feColorMatrix in="SourceAlpha" type="matrix" values="0 0 0 0 0 0 0 0 0 0 0 0 0 0 0 0 0 0 127 0" result="hardAlpha"/>
<feOffset dy="3.73333"/>
<feComposite in2="hardAlpha" operator="out"/>
<feColorMatrix type="matrix" values="0 0 0 0 0.898039 0 0 0 0 0.419608 0 0 0 0 0.180392 0 0 0 1 0"/>
<feBlend mode="normal" in2="BackgroundImageFix" result="effect1_dropShadow_844_1217"/>
<feBlend mode="normal" in="SourceGraphic" in2="effect1_dropShadow_844_1217" result="shape"/>
</filter>
<filter id="filter3_d_844_1217" x="241.026" y="13.9082" width="70" height="73.7333" filterUnits="userSpaceOnUse" color-interpolation-filters="sRGB">
<feFlood flood-opacity="0" result="BackgroundImageFix"/>
<feColorMatrix in="SourceAlpha" type="matrix" values="0 0 0 0 0 0 0 0 0 0 0 0 0 0 0 0 0 0 127 0" result="hardAlpha"/>
<feOffset dy="3.73333"/>
<feComposite in2="hardAlpha" operator="out"/>
<feColorMatrix type="matrix" values="0 0 0 0 0.77 0 0 0 0 0.77 0 0 0 0 0.77 0 0 0 1 0"/>
<feBlend mode="normal" in2="BackgroundImageFix" result="effect1_dropShadow_844_1217"/>
<feBlend mode="normal" in="SourceGraphic" in2="effect1_dropShadow_844_1217" result="shape"/>
</filter>
<filter id="filter4_d_844_1217" x="316.64" y="54.3396" width="70" height="73.7333" filterUnits="userSpaceOnUse" color-interpolation-filters="sRGB">
<feFlood flood-opacity="0" result="BackgroundImageFix"/>
<feColorMatrix in="SourceAlpha" type="matrix" values="0 0 0 0 0 0 0 0 0 0 0 0 0 0 0 0 0 0 127 0" result="hardAlpha"/>
<feOffset dy="3.73333"/>
<feComposite in2="hardAlpha" operator="out"/>
<feColorMatrix type="matrix" values="0 0 0 0 0.77 0 0 0 0 0.77 0 0 0 0 0.77 0 0 0 1 0"/>
<feBlend mode="normal" in2="BackgroundImageFix" result="effect1_dropShadow_844_1217"/>
<feBlend mode="normal" in="SourceGraphic" in2="effect1_dropShadow_844_1217" result="shape"/>
</filter>
<filter id="filter5_d_844_1217" x="390.854" y="93.3887" width="70" height="73.7333" filterUnits="userSpaceOnUse" color-interpolation-filters="sRGB">
<feFlood flood-opacity="0" result="BackgroundImageFix"/>
<feColorMatrix in="SourceAlpha" type="matrix" values="0 0 0 0 0 0 0 0 0 0 0 0 0 0 0 0 0 0 127 0" result="hardAlpha"/>
<feOffset dy="3.73333"/>
<feComposite in2="hardAlpha" operator="out"/>
<feColorMatrix type="matrix" values="0 0 0 0 0.77 0 0 0 0 0.77 0 0 0 0 0.77 0 0 0 1 0"/>
<feBlend mode="normal" in2="BackgroundImageFix" result="effect1_dropShadow_844_1217"/>
<feBlend mode="normal" in="SourceGraphic" in2="effect1_dropShadow_844_1217" result="shape"/>
</filter>
<filter id="filter6_d_844_1217" x="474.168" y="105.93" width="70" height="73.7333" filterUnits="userSpaceOnUse" color-interpolation-filters="sRGB">
<feFlood flood-opacity="0" result="BackgroundImageFix"/>
<feColorMatrix in="SourceAlpha" type="matrix" values="0 0 0 0 0 0 0 0 0 0 0 0 0 0 0 0 0 0 127 0" result="hardAlpha"/>
<feOffset dy="3.73333"/>
<feComposite in2="hardAlpha" operator="out"/>
<feColorMatrix type="matrix" values="0 0 0 0 0.77 0 0 0 0 0.77 0 0 0 0 0.77 0 0 0 1 0"/>
<feBlend mode="normal" in2="BackgroundImageFix" result="effect1_dropShadow_844_1217"/>
<feBlend mode="normal" in="SourceGraphic" in2="effect1_dropShadow_844_1217" result="shape"/>
</filter>
<filter id="filter7_d_844_1217" x="555.656" y="91.1807" width="70" height="73.7333" filterUnits="userSpaceOnUse" color-interpolation-filters="sRGB">
<feFlood flood-opacity="0" result="BackgroundImageFix"/>
<feColorMatrix in="SourceAlpha" type="matrix" values="0 0 0 0 0 0 0 0 0 0 0 0 0 0 0 0 0 0 127 0" result="hardAlpha"/>
<feOffset dy="3.73333"/>
<feComposite in2="hardAlpha" operator="out"/>
<feColorMatrix type="matrix" values="0 0 0 0 0.77 0 0 0 0 0.77 0 0 0 0 0.77 0 0 0 1 0"/>
<feBlend mode="normal" in2="BackgroundImageFix" result="effect1_dropShadow_844_1217"/>
<feBlend mode="normal" in="SourceGraphic" in2="effect1_dropShadow_844_1217" result="shape"/>
</filter>
<linearGradient id="paint0_linear_844_1217" x1="305.5" y1="91" x2="626" y2="91" gradientUnits="userSpaceOnUse">
<stop stop-color="white"/>
<stop offset="1" stop-color="white" stop-opacity="0"/>
</linearGradient>
<clipPath id="clip0_844_1217">
<rect y="53.5" width="70" height="70" rx="35" fill="white"/>
</clipPath>
<clipPath id="clip1_844_1217">
<rect x="74" y="16" width="70" height="70" rx="35" fill="white"/>
</clipPath>
</defs>
</svg>
