<svg width="173" height="179" viewBox="0 0 173 179" fill="none" xmlns="http://www.w3.org/2000/svg">
<rect x="20.25" y="5.5" width="132" height="132" rx="10" fill="white"/>
<path d="M28.6982 13.948H32.6673V17.9171H28.6982V13.948ZM32.6673 13.948H36.6364V17.9171H32.6673V13.948ZM36.6364 13.948H40.6056V17.9171H36.6364V13.948ZM40.6056 13.948H44.5747V17.9171H40.6056V13.948ZM44.5747 13.948H48.5438V17.9171H44.5747V13.948ZM48.5438 13.948H52.5129V17.9171H48.5438V13.948ZM52.5129 13.948H56.482V17.9171H52.5129V13.948ZM60.4511 13.948H64.4202V17.9171H60.4511V13.948ZM72.3584 13.948H76.3275V17.9171H72.3584V13.948ZM80.2966 13.948H84.2657V17.9171H80.2966V13.948ZM88.2348 13.948H92.2039V17.9171H88.2348V13.948ZM92.2039 13.948H96.173V17.9171H92.2039V13.948ZM96.173 13.948H100.142V17.9171H96.173V13.948ZM100.142 13.948H104.111V17.9171H100.142V13.948ZM108.08 13.948H112.049V17.9171H108.08V13.948ZM116.019 13.948H119.988V17.9171H116.019V13.948ZM119.988 13.948H123.957V17.9171H119.988V13.948ZM123.957 13.948H127.926V17.9171H123.957V13.948ZM127.926 13.948H131.895V17.9171H127.926V13.948ZM131.895 13.948H135.864V17.9171H131.895V13.948ZM135.864 13.948H139.833V17.9171H135.864V13.948ZM139.833 13.948H143.802V17.9171H139.833V13.948ZM28.6982 17.9171H32.6673V21.8862H28.6982V17.9171ZM52.5129 17.9171H56.482V21.8862H52.5129V17.9171ZM80.2966 17.9171H84.2657V21.8862H80.2966V17.9171ZM116.019 17.9171H119.988V21.8862H116.019V17.9171ZM139.833 17.9171H143.802V21.8862H139.833V17.9171ZM28.6982 21.8862H32.6673V25.8553H28.6982V21.8862ZM36.6364 21.8862H40.6056V25.8553H36.6364V21.8862ZM40.6056 21.8862H44.5747V25.8553H40.6056V21.8862ZM44.5747 21.8862H48.5438V25.8553H44.5747V21.8862ZM52.5129 21.8862H56.482V25.8553H52.5129V21.8862ZM60.4511 21.8862H64.4202V25.8553H60.4511V21.8862ZM76.3275 21.8862H80.2966V25.8553H76.3275V21.8862ZM88.2348 21.8862H92.2039V25.8553H88.2348V21.8862ZM92.2039 21.8862H96.173V25.8553H92.2039V21.8862ZM96.173 21.8862H100.142V25.8553H96.173V21.8862ZM104.111 21.8862H108.08V25.8553H104.111V21.8862ZM116.019 21.8862H119.988V25.8553H116.019V21.8862ZM123.957 21.8862H127.926V25.8553H123.957V21.8862ZM127.926 21.8862H131.895V25.8553H127.926V21.8862ZM131.895 21.8862H135.864V25.8553H131.895V21.8862ZM139.833 21.8862H143.802V25.8553H139.833V21.8862ZM28.6982 25.8553H32.6673V29.8244H28.6982V25.8553ZM36.6364 25.8553H40.6056V29.8244H36.6364V25.8553ZM40.6056 25.8553H44.5747V29.8244H40.6056V25.8553ZM44.5747 25.8553H48.5438V29.8244H44.5747V25.8553ZM52.5129 25.8553H56.482V29.8244H52.5129V25.8553ZM60.4511 25.8553H64.4202V29.8244H60.4511V25.8553ZM68.3893 25.8553H72.3584V29.8244H68.3893V25.8553ZM76.3275 25.8553H80.2966V29.8244H76.3275V25.8553ZM80.2966 25.8553H84.2657V29.8244H80.2966V25.8553ZM84.2657 25.8553H88.2348V29.8244H84.2657V25.8553ZM92.2039 25.8553H96.173V29.8244H92.2039V25.8553ZM100.142 25.8553H104.111V29.8244H100.142V25.8553ZM116.019 25.8553H119.988V29.8244H116.019V25.8553ZM123.957 25.8553H127.926V29.8244H123.957V25.8553ZM127.926 25.8553H131.895V29.8244H127.926V25.8553ZM131.895 25.8553H135.864V29.8244H131.895V25.8553ZM139.833 25.8553H143.802V29.8244H139.833V25.8553ZM28.6982 29.8244H32.6673V33.7935H28.6982V29.8244ZM36.6364 29.8244H40.6056V33.7935H36.6364V29.8244ZM40.6056 29.8244H44.5747V33.7935H40.6056V29.8244ZM44.5747 29.8244H48.5438V33.7935H44.5747V29.8244ZM52.5129 29.8244H56.482V33.7935H52.5129V29.8244ZM64.4202 29.8244H68.3893V33.7935H64.4202V29.8244ZM68.3893 29.8244H72.3584V33.7935H68.3893V29.8244ZM80.2966 29.8244H84.2657V33.7935H80.2966V29.8244ZM84.2657 29.8244H88.2348V33.7935H84.2657V29.8244ZM96.173 29.8244H100.142V33.7935H96.173V29.8244ZM100.142 29.8244H104.111V33.7935H100.142V29.8244ZM116.019 29.8244H119.988V33.7935H116.019V29.8244ZM123.957 29.8244H127.926V33.7935H123.957V29.8244ZM127.926 29.8244H131.895V33.7935H127.926V29.8244ZM131.895 29.8244H135.864V33.7935H131.895V29.8244ZM139.833 29.8244H143.802V33.7935H139.833V29.8244ZM28.6982 33.7935H32.6673V37.7626H28.6982V33.7935ZM52.5129 33.7935H56.482V37.7626H52.5129V33.7935ZM60.4511 33.7935H64.4202V37.7626H60.4511V33.7935ZM64.4202 33.7935H68.3893V37.7626H64.4202V33.7935ZM68.3893 33.7935H72.3584V37.7626H68.3893V33.7935ZM72.3584 33.7935H76.3275V37.7626H72.3584V33.7935ZM80.2966 33.7935H84.2657V37.7626H80.2966V33.7935ZM96.173 33.7935H100.142V37.7626H96.173V33.7935ZM100.142 33.7935H104.111V37.7626H100.142V33.7935ZM104.111 33.7935H108.08V37.7626H104.111V33.7935ZM116.019 33.7935H119.988V37.7626H116.019V33.7935ZM139.833 33.7935H143.802V37.7626H139.833V33.7935ZM28.6982 37.7626H32.6673V41.7317H28.6982V37.7626ZM32.6673 37.7626H36.6364V41.7317H32.6673V37.7626ZM36.6364 37.7626H40.6056V41.7317H36.6364V37.7626ZM40.6056 37.7626H44.5747V41.7317H40.6056V37.7626ZM44.5747 37.7626H48.5438V41.7317H44.5747V37.7626ZM48.5438 37.7626H52.5129V41.7317H48.5438V37.7626ZM52.5129 37.7626H56.482V41.7317H52.5129V37.7626ZM60.4511 37.7626H64.4202V41.7317H60.4511V37.7626ZM68.3893 37.7626H72.3584V41.7317H68.3893V37.7626ZM76.3275 37.7626H80.2966V41.7317H76.3275V37.7626ZM84.2657 37.7626H88.2348V41.7317H84.2657V37.7626ZM92.2039 37.7626H96.173V41.7317H92.2039V37.7626ZM100.142 37.7626H104.111V41.7317H100.142V37.7626ZM108.08 37.7626H112.049V41.7317H108.08V37.7626ZM116.019 37.7626H119.988V41.7317H116.019V37.7626ZM119.988 37.7626H123.957V41.7317H119.988V37.7626ZM123.957 37.7626H127.926V41.7317H123.957V37.7626ZM127.926 37.7626H131.895V41.7317H127.926V37.7626ZM131.895 37.7626H135.864V41.7317H131.895V37.7626ZM135.864 37.7626H139.833V41.7317H135.864V37.7626ZM139.833 37.7626H143.802V41.7317H139.833V37.7626ZM60.4511 41.7317H64.4202V45.7008H60.4511V41.7317ZM64.4202 41.7317H68.3893V45.7008H64.4202V41.7317ZM68.3893 41.7317H72.3584V45.7008H68.3893V41.7317ZM84.2657 41.7317H88.2348V45.7008H84.2657V41.7317ZM88.2348 41.7317H92.2039V45.7008H88.2348V41.7317ZM32.6673 45.7008H36.6364V49.6699H32.6673V45.7008ZM40.6056 45.7008H44.5747V49.6699H40.6056V45.7008ZM48.5438 45.7008H52.5129V49.6699H48.5438V45.7008ZM52.5129 45.7008H56.482V49.6699H52.5129V45.7008ZM56.482 45.7008H60.4511V49.6699H56.482V45.7008ZM60.4511 45.7008H64.4202V49.6699H60.4511V45.7008ZM76.3275 45.7008H80.2966V49.6699H76.3275V45.7008ZM80.2966 45.7008H84.2657V49.6699H80.2966V45.7008ZM84.2657 45.7008H88.2348V49.6699H84.2657V45.7008ZM96.173 45.7008H100.142V49.6699H96.173V45.7008ZM104.111 45.7008H108.08V49.6699H104.111V45.7008ZM108.08 45.7008H112.049V49.6699H108.08V45.7008ZM112.049 45.7008H116.019V49.6699H112.049V45.7008ZM116.019 45.7008H119.988V49.6699H116.019V45.7008ZM119.988 45.7008H123.957V49.6699H119.988V45.7008ZM127.926 45.7008H131.895V49.6699H127.926V45.7008ZM131.895 45.7008H135.864V49.6699H131.895V45.7008ZM139.833 45.7008H143.802V49.6699H139.833V45.7008ZM32.6673 49.6699H36.6364V53.639H32.6673V49.6699ZM48.5438 49.6699H52.5129V53.639H48.5438V49.6699ZM56.482 49.6699H60.4511V53.639H56.482V49.6699ZM68.3893 49.6699H72.3584V53.639H68.3893V49.6699ZM76.3275 49.6699H80.2966V53.639H76.3275V49.6699ZM80.2966 49.6699H84.2657V53.639H80.2966V49.6699ZM84.2657 49.6699H88.2348V53.639H84.2657V49.6699ZM92.2039 49.6699H96.173V53.639H92.2039V49.6699ZM96.173 49.6699H100.142V53.639H96.173V49.6699ZM108.08 49.6699H112.049V53.639H108.08V49.6699ZM116.019 49.6699H119.988V53.639H116.019V49.6699ZM127.926 49.6699H131.895V53.639H127.926V49.6699ZM139.833 49.6699H143.802V53.639H139.833V49.6699ZM32.6673 53.639H36.6364V57.6081H32.6673V53.639ZM36.6364 53.639H40.6056V57.6081H36.6364V53.639ZM48.5438 53.639H52.5129V57.6081H48.5438V53.639ZM52.5129 53.639H56.482V57.6081H52.5129V53.639ZM56.482 53.639H60.4511V57.6081H56.482V53.639ZM60.4511 53.639H64.4202V57.6081H60.4511V53.639ZM64.4202 53.639H68.3893V57.6081H64.4202V53.639ZM76.3275 53.639H80.2966V57.6081H76.3275V53.639ZM84.2657 53.639H88.2348V57.6081H84.2657V53.639ZM88.2348 53.639H92.2039V57.6081H88.2348V53.639ZM100.142 53.639H104.111V57.6081H100.142V53.639ZM104.111 53.639H108.08V57.6081H104.111V53.639ZM116.019 53.639H119.988V57.6081H116.019V53.639ZM123.957 53.639H127.926V57.6081H123.957V53.639ZM127.926 53.639H131.895V57.6081H127.926V53.639ZM131.895 53.639H135.864V57.6081H131.895V53.639ZM135.864 53.639H139.833V57.6081H135.864V53.639ZM36.6364 57.6081H40.6056V61.5772H36.6364V57.6081ZM40.6056 57.6081H44.5747V61.5772H40.6056V57.6081ZM44.5747 57.6081H48.5438V61.5772H44.5747V57.6081ZM56.482 57.6081H60.4511V61.5772H56.482V57.6081ZM64.4202 57.6081H68.3893V61.5772H64.4202V57.6081ZM72.3584 57.6081H76.3275V61.5772H72.3584V57.6081ZM76.3275 57.6081H80.2966V61.5772H76.3275V57.6081ZM84.2657 57.6081H88.2348V61.5772H84.2657V57.6081ZM88.2348 57.6081H92.2039V61.5772H88.2348V57.6081ZM100.142 57.6081H104.111V61.5772H100.142V57.6081ZM104.111 57.6081H108.08V61.5772H104.111V57.6081ZM108.08 57.6081H112.049V61.5772H108.08V57.6081ZM112.049 57.6081H116.019V61.5772H112.049V57.6081ZM116.019 57.6081H119.988V61.5772H116.019V57.6081ZM119.988 57.6081H123.957V61.5772H119.988V57.6081ZM123.957 57.6081H127.926V61.5772H123.957V57.6081ZM131.895 57.6081H135.864V61.5772H131.895V57.6081ZM135.864 57.6081H139.833V61.5772H135.864V57.6081ZM32.6673 61.5772H36.6364V65.5463H32.6673V61.5772ZM40.6056 61.5772H44.5747V65.5463H40.6056V61.5772ZM48.5438 61.5772H52.5129V65.5463H48.5438V61.5772ZM52.5129 61.5772H56.482V65.5463H52.5129V61.5772ZM56.482 61.5772H60.4511V65.5463H56.482V61.5772ZM64.4202 61.5772H68.3893V65.5463H64.4202V61.5772ZM80.2966 61.5772H84.2657V65.5463H80.2966V61.5772ZM96.173 61.5772H100.142V65.5463H96.173V61.5772ZM104.111 61.5772H108.08V65.5463H104.111V61.5772ZM108.08 61.5772H112.049V65.5463H108.08V61.5772ZM116.019 61.5772H119.988V65.5463H116.019V61.5772ZM119.988 61.5772H123.957V65.5463H119.988V61.5772ZM32.6673 65.5463H36.6364V69.5154H32.6673V65.5463ZM36.6364 65.5463H40.6056V69.5154H36.6364V65.5463ZM44.5747 65.5463H48.5438V69.5154H44.5747V65.5463ZM48.5438 65.5463H52.5129V69.5154H48.5438V65.5463ZM56.482 65.5463H60.4511V69.5154H56.482V65.5463ZM60.4511 65.5463H64.4202V69.5154H60.4511V65.5463ZM68.3893 65.5463H72.3584V69.5154H68.3893V65.5463ZM72.3584 65.5463H76.3275V69.5154H72.3584V65.5463ZM84.2657 65.5463H88.2348V69.5154H84.2657V65.5463ZM96.173 65.5463H100.142V69.5154H96.173V65.5463ZM104.111 65.5463H108.08V69.5154H104.111V65.5463ZM108.08 65.5463H112.049V69.5154H108.08V65.5463ZM112.049 65.5463H116.019V69.5154H112.049V65.5463ZM119.988 65.5463H123.957V69.5154H119.988V65.5463ZM127.926 65.5463H131.895V69.5154H127.926V65.5463ZM40.6056 69.5154H44.5747V73.4846H40.6056V69.5154ZM52.5129 69.5154H56.482V73.4846H52.5129V69.5154ZM68.3893 69.5154H72.3584V73.4846H68.3893V69.5154ZM72.3584 69.5154H76.3275V73.4846H72.3584V69.5154ZM84.2657 69.5154H88.2348V73.4846H84.2657V69.5154ZM88.2348 69.5154H92.2039V73.4846H88.2348V69.5154ZM92.2039 69.5154H96.173V73.4846H92.2039V69.5154ZM96.173 69.5154H100.142V73.4846H96.173V69.5154ZM100.142 69.5154H104.111V73.4846H100.142V69.5154ZM116.019 69.5154H119.988V73.4846H116.019V69.5154ZM135.864 69.5154H139.833V73.4846H135.864V69.5154ZM139.833 69.5154H143.802V73.4846H139.833V69.5154ZM40.6056 73.4846H44.5747V77.4537H40.6056V73.4846ZM44.5747 73.4846H48.5438V77.4537H44.5747V73.4846ZM48.5438 73.4846H52.5129V77.4537H48.5438V73.4846ZM60.4511 73.4846H64.4202V77.4537H60.4511V73.4846ZM72.3584 73.4846H76.3275V77.4537H72.3584V73.4846ZM76.3275 73.4846H80.2966V77.4537H76.3275V73.4846ZM92.2039 73.4846H96.173V77.4537H92.2039V73.4846ZM96.173 73.4846H100.142V77.4537H96.173V73.4846ZM100.142 73.4846H104.111V77.4537H100.142V73.4846ZM104.111 73.4846H108.08V77.4537H104.111V73.4846ZM116.019 73.4846H119.988V77.4537H116.019V73.4846ZM119.988 73.4846H123.957V77.4537H119.988V73.4846ZM135.864 73.4846H139.833V77.4537H135.864V73.4846ZM139.833 73.4846H143.802V77.4537H139.833V73.4846ZM28.6982 77.4537H32.6673V81.4228H28.6982V77.4537ZM36.6364 77.4537H40.6056V81.4228H36.6364V77.4537ZM40.6056 77.4537H44.5747V81.4228H40.6056V77.4537ZM44.5747 77.4537H48.5438V81.4228H44.5747V77.4537ZM48.5438 77.4537H52.5129V81.4228H48.5438V77.4537ZM52.5129 77.4537H56.482V81.4228H52.5129V77.4537ZM60.4511 77.4537H64.4202V81.4228H60.4511V77.4537ZM64.4202 77.4537H68.3893V81.4228H64.4202V77.4537ZM76.3275 77.4537H80.2966V81.4228H76.3275V77.4537ZM84.2657 77.4537H88.2348V81.4228H84.2657V77.4537ZM100.142 77.4537H104.111V81.4228H100.142V77.4537ZM104.111 77.4537H108.08V81.4228H104.111V77.4537ZM135.864 77.4537H139.833V81.4228H135.864V77.4537ZM32.6673 81.4228H36.6364V85.3919H32.6673V81.4228ZM40.6056 81.4228H44.5747V85.3919H40.6056V81.4228ZM76.3275 81.4228H80.2966V85.3919H76.3275V81.4228ZM80.2966 81.4228H84.2657V85.3919H80.2966V81.4228ZM84.2657 81.4228H88.2348V85.3919H84.2657V81.4228ZM88.2348 81.4228H92.2039V85.3919H88.2348V81.4228ZM92.2039 81.4228H96.173V85.3919H92.2039V81.4228ZM96.173 81.4228H100.142V85.3919H96.173V81.4228ZM100.142 81.4228H104.111V85.3919H100.142V81.4228ZM112.049 81.4228H116.019V85.3919H112.049V81.4228ZM116.019 81.4228H119.988V85.3919H116.019V81.4228ZM119.988 81.4228H123.957V85.3919H119.988V81.4228ZM127.926 81.4228H131.895V85.3919H127.926V81.4228ZM135.864 81.4228H139.833V85.3919H135.864V81.4228ZM139.833 81.4228H143.802V85.3919H139.833V81.4228ZM28.6982 85.3919H32.6673V89.361H28.6982V85.3919ZM44.5747 85.3919H48.5438V89.361H44.5747V85.3919ZM52.5129 85.3919H56.482V89.361H52.5129V85.3919ZM64.4202 85.3919H68.3893V89.361H64.4202V85.3919ZM68.3893 85.3919H72.3584V89.361H68.3893V85.3919ZM88.2348 85.3919H92.2039V89.361H88.2348V85.3919ZM92.2039 85.3919H96.173V89.361H92.2039V85.3919ZM100.142 85.3919H104.111V89.361H100.142V85.3919ZM108.08 85.3919H112.049V89.361H108.08V85.3919ZM112.049 85.3919H116.019V89.361H112.049V85.3919ZM119.988 85.3919H123.957V89.361H119.988V85.3919ZM123.957 85.3919H127.926V89.361H123.957V85.3919ZM127.926 85.3919H131.895V89.361H127.926V85.3919ZM131.895 85.3919H135.864V89.361H131.895V85.3919ZM135.864 85.3919H139.833V89.361H135.864V85.3919ZM139.833 85.3919H143.802V89.361H139.833V85.3919ZM40.6056 89.361H44.5747V93.3301H40.6056V89.361ZM48.5438 89.361H52.5129V93.3301H48.5438V89.361ZM56.482 89.361H60.4511V93.3301H56.482V89.361ZM60.4511 89.361H64.4202V93.3301H60.4511V89.361ZM68.3893 89.361H72.3584V93.3301H68.3893V89.361ZM80.2966 89.361H84.2657V93.3301H80.2966V89.361ZM96.173 89.361H100.142V93.3301H96.173V89.361ZM100.142 89.361H104.111V93.3301H100.142V89.361ZM127.926 89.361H131.895V93.3301H127.926V89.361ZM28.6982 93.3301H32.6673V97.2992H28.6982V93.3301ZM40.6056 93.3301H44.5747V97.2992H40.6056V93.3301ZM44.5747 93.3301H48.5438V97.2992H44.5747V93.3301ZM52.5129 93.3301H56.482V97.2992H52.5129V93.3301ZM56.482 93.3301H60.4511V97.2992H56.482V93.3301ZM64.4202 93.3301H68.3893V97.2992H64.4202V93.3301ZM68.3893 93.3301H72.3584V97.2992H68.3893V93.3301ZM72.3584 93.3301H76.3275V97.2992H72.3584V93.3301ZM76.3275 93.3301H80.2966V97.2992H76.3275V93.3301ZM80.2966 93.3301H84.2657V97.2992H80.2966V93.3301ZM84.2657 93.3301H88.2348V97.2992H84.2657V93.3301ZM88.2348 93.3301H92.2039V97.2992H88.2348V93.3301ZM92.2039 93.3301H96.173V97.2992H92.2039V93.3301ZM100.142 93.3301H104.111V97.2992H100.142V93.3301ZM104.111 93.3301H108.08V97.2992H104.111V93.3301ZM108.08 93.3301H112.049V97.2992H108.08V93.3301ZM112.049 93.3301H116.019V97.2992H112.049V93.3301ZM116.019 93.3301H119.988V97.2992H116.019V93.3301ZM119.988 93.3301H123.957V97.2992H119.988V93.3301ZM123.957 93.3301H127.926V97.2992H123.957V93.3301ZM127.926 93.3301H131.895V97.2992H127.926V93.3301ZM131.895 93.3301H135.864V97.2992H131.895V93.3301ZM60.4511 97.2992H64.4202V101.268H60.4511V97.2992ZM68.3893 97.2992H72.3584V101.268H68.3893V97.2992ZM80.2966 97.2992H84.2657V101.268H80.2966V97.2992ZM92.2039 97.2992H96.173V101.268H92.2039V97.2992ZM108.08 97.2992H112.049V101.268H108.08V97.2992ZM123.957 97.2992H127.926V101.268H123.957V97.2992ZM139.833 97.2992H143.802V101.268H139.833V97.2992ZM28.6982 101.268H32.6673V105.237H28.6982V101.268ZM32.6673 101.268H36.6364V105.237H32.6673V101.268ZM36.6364 101.268H40.6056V105.237H36.6364V101.268ZM40.6056 101.268H44.5747V105.237H40.6056V101.268ZM44.5747 101.268H48.5438V105.237H44.5747V101.268ZM48.5438 101.268H52.5129V105.237H48.5438V101.268ZM52.5129 101.268H56.482V105.237H52.5129V101.268ZM60.4511 101.268H64.4202V105.237H60.4511V101.268ZM64.4202 101.268H68.3893V105.237H64.4202V101.268ZM80.2966 101.268H84.2657V105.237H80.2966V101.268ZM96.173 101.268H100.142V105.237H96.173V101.268ZM108.08 101.268H112.049V105.237H108.08V101.268ZM116.019 101.268H119.988V105.237H116.019V101.268ZM123.957 101.268H127.926V105.237H123.957V101.268ZM127.926 101.268H131.895V105.237H127.926V101.268ZM131.895 101.268H135.864V105.237H131.895V101.268ZM135.864 101.268H139.833V105.237H135.864V101.268ZM28.6982 105.237H32.6673V109.206H28.6982V105.237ZM52.5129 105.237H56.482V109.206H52.5129V105.237ZM60.4511 105.237H64.4202V109.206H60.4511V105.237ZM68.3893 105.237H72.3584V109.206H68.3893V105.237ZM72.3584 105.237H76.3275V109.206H72.3584V105.237ZM76.3275 105.237H80.2966V109.206H76.3275V105.237ZM88.2348 105.237H92.2039V109.206H88.2348V105.237ZM92.2039 105.237H96.173V109.206H92.2039V105.237ZM96.173 105.237H100.142V109.206H96.173V105.237ZM108.08 105.237H112.049V109.206H108.08V105.237ZM123.957 105.237H127.926V109.206H123.957V105.237ZM131.895 105.237H135.864V109.206H131.895V105.237ZM28.6982 109.206H32.6673V113.176H28.6982V109.206ZM36.6364 109.206H40.6056V113.176H36.6364V109.206ZM40.6056 109.206H44.5747V113.176H40.6056V109.206ZM44.5747 109.206H48.5438V113.176H44.5747V109.206ZM52.5129 109.206H56.482V113.176H52.5129V109.206ZM68.3893 109.206H72.3584V113.176H68.3893V109.206ZM76.3275 109.206H80.2966V113.176H76.3275V109.206ZM80.2966 109.206H84.2657V113.176H80.2966V109.206ZM84.2657 109.206H88.2348V113.176H84.2657V109.206ZM108.08 109.206H112.049V113.176H108.08V109.206ZM112.049 109.206H116.019V113.176H112.049V109.206ZM116.019 109.206H119.988V113.176H116.019V109.206ZM119.988 109.206H123.957V113.176H119.988V109.206ZM123.957 109.206H127.926V113.176H123.957V109.206ZM127.926 109.206H131.895V113.176H127.926V109.206ZM135.864 109.206H139.833V113.176H135.864V109.206ZM139.833 109.206H143.802V113.176H139.833V109.206ZM28.6982 113.176H32.6673V117.145H28.6982V113.176ZM36.6364 113.176H40.6056V117.145H36.6364V113.176ZM40.6056 113.176H44.5747V117.145H40.6056V113.176ZM44.5747 113.176H48.5438V117.145H44.5747V113.176ZM52.5129 113.176H56.482V117.145H52.5129V113.176ZM60.4511 113.176H64.4202V117.145H60.4511V113.176ZM64.4202 113.176H68.3893V117.145H64.4202V113.176ZM72.3584 113.176H76.3275V117.145H72.3584V113.176ZM76.3275 113.176H80.2966V117.145H76.3275V113.176ZM88.2348 113.176H92.2039V117.145H88.2348V113.176ZM92.2039 113.176H96.173V117.145H92.2039V113.176ZM104.111 113.176H108.08V117.145H104.111V113.176ZM108.08 113.176H112.049V117.145H108.08V113.176ZM112.049 113.176H116.019V117.145H112.049V113.176ZM116.019 113.176H119.988V117.145H116.019V113.176ZM123.957 113.176H127.926V117.145H123.957V113.176ZM131.895 113.176H135.864V117.145H131.895V113.176ZM139.833 113.176H143.802V117.145H139.833V113.176ZM28.6982 117.145H32.6673V121.114H28.6982V117.145ZM36.6364 117.145H40.6056V121.114H36.6364V117.145ZM40.6056 117.145H44.5747V121.114H40.6056V117.145ZM44.5747 117.145H48.5438V121.114H44.5747V117.145ZM52.5129 117.145H56.482V121.114H52.5129V117.145ZM64.4202 117.145H68.3893V121.114H64.4202V117.145ZM68.3893 117.145H72.3584V121.114H68.3893V117.145ZM72.3584 117.145H76.3275V121.114H72.3584V117.145ZM76.3275 117.145H80.2966V121.114H76.3275V117.145ZM84.2657 117.145H88.2348V121.114H84.2657V117.145ZM104.111 117.145H108.08V121.114H104.111V117.145ZM108.08 117.145H112.049V121.114H108.08V117.145ZM123.957 117.145H127.926V121.114H123.957V117.145ZM139.833 117.145H143.802V121.114H139.833V117.145ZM28.6982 121.114H32.6673V125.083H28.6982V121.114ZM52.5129 121.114H56.482V125.083H52.5129V121.114ZM60.4511 121.114H64.4202V125.083H60.4511V121.114ZM68.3893 121.114H72.3584V125.083H68.3893V121.114ZM88.2348 121.114H92.2039V125.083H88.2348V121.114ZM96.173 121.114H100.142V125.083H96.173V121.114ZM108.08 121.114H112.049V125.083H108.08V121.114ZM116.019 121.114H119.988V125.083H116.019V121.114ZM119.988 121.114H123.957V125.083H119.988V121.114ZM135.864 121.114H139.833V125.083H135.864V121.114ZM28.6982 125.083H32.6673V129.052H28.6982V125.083ZM32.6673 125.083H36.6364V129.052H32.6673V125.083ZM36.6364 125.083H40.6056V129.052H36.6364V125.083ZM40.6056 125.083H44.5747V129.052H40.6056V125.083ZM44.5747 125.083H48.5438V129.052H44.5747V125.083ZM48.5438 125.083H52.5129V129.052H48.5438V125.083ZM52.5129 125.083H56.482V129.052H52.5129V125.083ZM68.3893 125.083H72.3584V129.052H68.3893V125.083ZM76.3275 125.083H80.2966V129.052H76.3275V125.083ZM96.173 125.083H100.142V129.052H96.173V125.083ZM108.08 125.083H112.049V129.052H108.08V125.083ZM116.019 125.083H119.988V129.052H116.019V125.083ZM123.957 125.083H127.926V129.052H123.957V125.083ZM127.926 125.083H131.895V129.052H127.926V125.083ZM135.864 125.083H139.833V129.052H135.864V125.083Z" fill="black"/>
<path fill-rule="evenodd" clip-rule="evenodd" d="M25.25 2.5C20.2794 2.5 16.25 6.52944 16.25 11.5V22C16.25 22.5523 15.8023 23 15.25 23C14.6977 23 14.25 22.5523 14.25 22V11.5C14.25 5.42487 19.1749 0.5 25.25 0.5H35.75C36.3023 0.5 36.75 0.947715 36.75 1.5C36.75 2.05228 36.3023 2.5 35.75 2.5H25.25Z" fill="black"/>
<path fill-rule="evenodd" clip-rule="evenodd" d="M147.75 142C152.721 142 156.75 137.971 156.75 133V122.5C156.75 121.948 157.198 121.5 157.75 121.5C158.302 121.5 158.75 121.948 158.75 122.5V133C158.75 139.075 153.825 144 147.75 144H137.25C136.698 144 136.25 143.552 136.25 143C136.25 142.448 136.698 142 137.25 142H147.75Z" fill="black"/>
<path fill-rule="evenodd" clip-rule="evenodd" d="M16.75 133.5C16.75 138.471 20.7794 142.5 25.75 142.5H36.25C36.8023 142.5 37.25 142.948 37.25 143.5C37.25 144.052 36.8023 144.5 36.25 144.5H25.75C19.6749 144.5 14.75 139.575 14.75 133.5L14.75 123C14.75 122.448 15.1977 122 15.75 122C16.3023 122 16.75 122.448 16.75 123V133.5Z" fill="black"/>
<path fill-rule="evenodd" clip-rule="evenodd" d="M156.25 11C156.25 6.02944 152.221 2 147.25 2L136.75 2C136.198 2 135.75 1.55228 135.75 1C135.75 0.447715 136.198 0 136.75 0L147.25 0C153.325 0 158.25 4.92487 158.25 11V21.5C158.25 22.0523 157.802 22.5 157.25 22.5C156.698 22.5 156.25 22.0523 156.25 21.5V11Z" fill="black"/>
<path fill-rule="evenodd" clip-rule="evenodd" d="M18 157.5C16.8954 157.5 16 158.395 16 159.5C16 159.847 16.0886 160.174 16.2444 160.459C16.2545 160.474 16.2643 160.49 16.2737 160.506C16.283 160.522 16.2918 160.538 16.3002 160.554C16.6531 161.122 17.2824 161.5 18 161.5C19.1046 161.5 20 160.605 20 159.5C20 158.395 19.1046 157.5 18 157.5ZM15.1581 162.315C15.883 163.047 16.8886 163.5 18 163.5C20.2091 163.5 22 161.709 22 159.5C22 157.291 20.2091 155.5 18 155.5C15.7909 155.5 14 157.291 14 159.5C14 159.877 14.0522 160.242 14.1497 160.588L8.84197 163.685C8.11707 162.953 7.11147 162.5 6 162.5C3.79086 162.5 2 164.291 2 166.5C2 168.709 3.79086 170.5 6 170.5C7.11165 170.5 8.11739 170.047 8.84231 169.314L14.1509 172.408C14.0526 172.755 14 173.121 14 173.5C14 175.709 15.7909 177.5 18 177.5C20.2091 177.5 22 175.709 22 173.5C22 171.291 20.2091 169.5 18 169.5C16.8902 169.5 15.8859 169.952 15.1613 170.682L9.85049 167.587C9.94789 167.241 10 166.877 10 166.5C10 166.123 9.94784 165.758 9.85036 165.412L15.1581 162.315ZM7.69959 165.445C7.708 165.462 7.71691 165.478 7.72632 165.494C7.73579 165.51 7.74565 165.526 7.75588 165.542C7.91152 165.826 8 166.153 8 166.5C8 166.847 7.9114 167.174 7.75556 167.459C7.74533 167.474 7.73547 167.49 7.726 167.507C7.71682 167.522 7.70812 167.538 7.69989 167.554C7.34703 168.122 6.71765 168.5 6 168.5C4.89543 168.5 4 167.605 4 166.5C4 165.395 4.89543 164.5 6 164.5C6.71745 164.5 7.34667 164.878 7.69959 165.445ZM16 173.5C16 173.175 16.0776 172.868 16.2152 172.597C16.2399 172.564 16.2629 172.53 16.284 172.494C16.3042 172.459 16.3221 172.423 16.3378 172.387C16.6967 171.852 17.3072 171.5 18 171.5C19.1046 171.5 20 172.395 20 173.5C20 174.605 19.1046 175.5 18 175.5C16.8954 175.5 16 174.605 16 173.5Z" fill="black"/>
<path d="M35.734 172.644C34.57 172.644 33.64 172.296 32.944 171.6C32.248 170.904 31.9 169.968 31.9 168.792H33.574C33.574 169.5 33.772 170.064 34.168 170.484C34.576 170.904 35.11 171.114 35.77 171.114H37.768C38.428 171.114 38.956 170.976 39.352 170.7C39.748 170.412 39.946 170.034 39.946 169.566V168.594C39.946 168.222 39.802 167.91 39.514 167.658C39.238 167.406 38.842 167.238 38.326 167.154L35.05 166.614C34.09 166.458 33.346 166.128 32.818 165.624C32.302 165.12 32.044 164.49 32.044 163.734V162.744C32.044 161.844 32.386 161.124 33.07 160.584C33.766 160.032 34.678 159.756 35.806 159.756H37.84C38.548 159.756 39.172 159.906 39.712 160.206C40.264 160.494 40.69 160.908 40.99 161.448C41.29 161.976 41.44 162.588 41.44 163.284H39.748C39.748 162.684 39.574 162.204 39.226 161.844C38.878 161.472 38.416 161.286 37.84 161.286H35.806C35.194 161.286 34.696 161.424 34.312 161.7C33.94 161.964 33.754 162.33 33.754 162.798V163.608C33.754 163.992 33.886 164.31 34.15 164.562C34.426 164.814 34.816 164.988 35.32 165.084L38.56 165.642C39.556 165.81 40.318 166.14 40.846 166.632C41.386 167.112 41.656 167.718 41.656 168.45V169.62C41.656 170.532 41.302 171.264 40.594 171.816C39.898 172.368 38.968 172.644 37.804 172.644H35.734ZM43.7209 163.518H45.3229V164.652C45.5749 164.268 45.8989 163.962 46.2949 163.734C46.7029 163.494 47.1109 163.374 47.5189 163.374H48.7609C49.7689 163.374 50.5789 163.686 51.1909 164.31C51.8149 164.934 52.1269 165.756 52.1269 166.776V168.918C52.1269 169.65 51.9829 170.298 51.6949 170.862C51.4189 171.426 51.0229 171.864 50.5069 172.176C49.9909 172.488 49.3969 172.644 48.7249 172.644H47.4649C47.1049 172.644 46.7269 172.548 46.3309 172.356C45.9469 172.164 45.6349 171.912 45.3949 171.6V176.082H43.7209V163.518ZM48.5809 171.168C49.1449 171.168 49.5949 170.958 49.9309 170.538C50.2669 170.118 50.4349 169.56 50.4349 168.864V166.83C50.4349 166.242 50.2669 165.768 49.9309 165.408C49.6069 165.036 49.1749 164.85 48.6349 164.85H47.4289C46.9849 164.85 46.5709 165.024 46.1869 165.372C45.8149 165.72 45.5509 166.176 45.3949 166.74V169.134C45.4669 169.734 45.6889 170.226 46.0609 170.61C46.4449 170.982 46.9009 171.168 47.4289 171.168H48.5809ZM54.2854 163.518H55.8874V164.832C56.1274 164.436 56.4754 164.112 56.9314 163.86C57.3994 163.608 57.8854 163.482 58.3894 163.482H59.3254V164.976H58.3894C57.6574 164.976 57.0694 165.204 56.6254 165.66C56.1814 166.104 55.9594 166.692 55.9594 167.424V172.5H54.2854V163.518ZM63.7108 172.644C62.6548 172.644 61.8028 172.344 61.1548 171.744C60.5188 171.132 60.2008 170.334 60.2008 169.35V166.866C60.2008 165.81 60.5188 164.964 61.1548 164.328C61.8028 163.692 62.6548 163.374 63.7108 163.374H65.1868C66.2068 163.374 67.0288 163.686 67.6528 164.31C68.2768 164.934 68.5888 165.762 68.5888 166.794V168.486H61.8748V169.35C61.8748 169.902 62.0428 170.346 62.3788 170.682C62.7148 171.018 63.1588 171.186 63.7108 171.186H65.0968C65.6368 171.186 66.0748 171.048 66.4108 170.772C66.7468 170.484 66.9148 170.106 66.9148 169.638H68.5528C68.5528 170.538 68.2348 171.264 67.5988 171.816C66.9628 172.368 66.1228 172.644 65.0788 172.644H63.7108ZM66.9148 167.154V166.794C66.9148 166.194 66.7528 165.714 66.4288 165.354C66.1168 164.994 65.7028 164.814 65.1868 164.814H63.7108C63.1588 164.814 62.7148 165.006 62.3788 165.39C62.0428 165.762 61.8748 166.26 61.8748 166.884V167.154H66.9148ZM73.3326 172.644C72.4326 172.644 71.7126 172.416 71.1726 171.96C70.6326 171.492 70.3626 170.874 70.3626 170.106V169.512C70.3626 168.756 70.6446 168.15 71.2086 167.694C71.7726 167.226 72.5106 166.992 73.4226 166.992H74.5566C74.9166 166.992 75.3006 167.046 75.7086 167.154C76.1166 167.262 76.4646 167.412 76.7526 167.604V166.29C76.7526 165.846 76.6146 165.492 76.3386 165.228C76.0626 164.952 75.7026 164.814 75.2586 164.814H73.7826C73.3266 164.814 72.9606 164.922 72.6846 165.138C72.4086 165.354 72.2706 165.636 72.2706 165.984H70.6146C70.6146 165.204 70.9026 164.574 71.4786 164.094C72.0666 163.614 72.8346 163.374 73.7826 163.374H75.2586C76.2066 163.374 76.9686 163.644 77.5446 164.184C78.1206 164.712 78.4086 165.414 78.4086 166.29V172.5H76.8426V171.294C76.5666 171.702 76.2066 172.032 75.7626 172.284C75.3186 172.524 74.8686 172.644 74.4126 172.644H73.3326ZM74.5026 171.258C75.0306 171.258 75.4986 171.108 75.9066 170.808C76.3146 170.496 76.5966 170.082 76.7526 169.566V169.026C76.5246 168.822 76.2126 168.66 75.8166 168.54C75.4206 168.42 75.0126 168.36 74.5926 168.36H73.4406C73.0206 168.36 72.6786 168.468 72.4146 168.684C72.1506 168.9 72.0186 169.188 72.0186 169.548V170.088C72.0186 170.448 72.1446 170.736 72.3966 170.952C72.6606 171.156 73.0086 171.258 73.4406 171.258H74.5026ZM83.7624 172.644C82.7784 172.644 81.9804 172.326 81.3684 171.69C80.7684 171.054 80.4684 170.214 80.4684 169.17V167.046C80.4684 166.326 80.6124 165.69 80.9004 165.138C81.1884 164.574 81.5904 164.142 82.1064 163.842C82.6344 163.53 83.2404 163.374 83.9244 163.374H85.1484C85.5324 163.374 85.9104 163.464 86.2824 163.644C86.6544 163.824 86.9544 164.064 87.1824 164.364V159.9H88.8744V172.5H87.2724V171.222C87.0084 171.642 86.6604 171.984 86.2284 172.248C85.7964 172.512 85.3644 172.644 84.9324 172.644H83.7624ZM85.0044 171.168C85.5684 171.168 86.0604 170.94 86.4804 170.484C86.9004 170.016 87.1344 169.464 87.1824 168.828V166.794C87.0984 166.206 86.8764 165.738 86.5164 165.39C86.1684 165.03 85.7484 164.85 85.2564 164.85H84.0504C83.4864 164.85 83.0244 165.06 82.6644 165.48C82.3164 165.888 82.1424 166.434 82.1424 167.118V169.116C82.1424 169.728 82.3044 170.226 82.6284 170.61C82.9644 170.982 83.3844 171.168 83.8884 171.168H85.0044ZM99.8808 172.5C98.8968 172.5 98.1828 172.284 97.7388 171.852C97.3068 171.42 97.0908 170.724 97.0908 169.764V164.976H95.5068V163.518H97.1088V160.8H98.7648V163.518H101.105V164.976H98.7648V169.728C98.7648 170.196 98.8548 170.532 99.0348 170.736C99.2268 170.94 99.5328 171.042 99.9528 171.042H101.105V172.5H99.8808ZM103.258 159.9H104.932V164.652C105.208 164.268 105.556 163.962 105.976 163.734C106.396 163.494 106.81 163.374 107.218 163.374H108.442C109.306 163.374 110.002 163.662 110.53 164.238C111.07 164.814 111.34 165.57 111.34 166.506V172.5H109.666V166.506C109.666 166.014 109.54 165.618 109.288 165.318C109.036 165.006 108.706 164.85 108.298 164.85H107.146C106.63 164.85 106.162 165.048 105.742 165.444C105.322 165.828 105.052 166.332 104.932 166.956V172.5H103.258V159.9ZM116.902 172.644C115.846 172.644 114.994 172.344 114.346 171.744C113.71 171.132 113.392 170.334 113.392 169.35V166.866C113.392 165.81 113.71 164.964 114.346 164.328C114.994 163.692 115.846 163.374 116.902 163.374H118.378C119.398 163.374 120.22 163.686 120.844 164.31C121.468 164.934 121.78 165.762 121.78 166.794V168.486H115.066V169.35C115.066 169.902 115.234 170.346 115.57 170.682C115.906 171.018 116.35 171.186 116.902 171.186H118.288C118.828 171.186 119.266 171.048 119.602 170.772C119.938 170.484 120.106 170.106 120.106 169.638H121.744C121.744 170.538 121.426 171.264 120.79 171.816C120.154 172.368 119.314 172.644 118.27 172.644H116.902ZM120.106 167.154V166.794C120.106 166.194 119.944 165.714 119.62 165.354C119.308 164.994 118.894 164.814 118.378 164.814H116.902C116.35 164.814 115.906 165.006 115.57 165.39C115.234 165.762 115.066 166.26 115.066 166.884V167.154H120.106ZM140.124 163.518L138.234 171.33C138.138 171.738 137.988 172.038 137.784 172.23C137.58 172.41 137.316 172.5 136.992 172.5H136.218L134.04 166.074L131.808 172.5H131.034C130.71 172.5 130.446 172.41 130.242 172.23C130.038 172.038 129.888 171.738 129.792 171.33L127.884 163.518H129.648L131.124 170.43L133.41 163.752H134.04C134.256 163.752 134.43 163.806 134.562 163.914C134.694 164.01 134.796 164.166 134.868 164.382L136.884 170.448L138.36 163.518H140.124ZM144.799 172.644C143.743 172.644 142.891 172.326 142.243 171.69C141.607 171.054 141.289 170.22 141.289 169.188V166.848C141.289 165.804 141.613 164.964 142.261 164.328C142.909 163.692 143.767 163.374 144.835 163.374H146.347C147.415 163.374 148.273 163.692 148.921 164.328C149.569 164.964 149.893 165.804 149.893 166.848V169.188C149.893 170.22 149.563 171.054 148.903 171.69C148.255 172.326 147.397 172.644 146.329 172.644H144.799ZM146.311 171.168C146.887 171.168 147.349 170.982 147.697 170.61C148.045 170.238 148.219 169.74 148.219 169.116V166.902C148.219 166.278 148.045 165.78 147.697 165.408C147.361 165.036 146.911 164.85 146.347 164.85H144.835C144.271 164.85 143.815 165.036 143.467 165.408C143.131 165.78 142.963 166.278 142.963 166.902V169.116C142.963 169.74 143.131 170.238 143.467 170.61C143.803 170.982 144.253 171.168 144.817 171.168H146.311ZM152.055 163.518H153.657V164.832C153.897 164.436 154.245 164.112 154.701 163.86C155.169 163.608 155.655 163.482 156.159 163.482H157.095V164.976H156.159C155.427 164.976 154.839 165.204 154.395 165.66C153.951 166.104 153.729 166.692 153.729 167.424V172.5H152.055V163.518ZM161.264 172.644C160.28 172.644 159.482 172.326 158.87 171.69C158.27 171.054 157.97 170.214 157.97 169.17V167.046C157.97 166.326 158.114 165.69 158.402 165.138C158.69 164.574 159.092 164.142 159.608 163.842C160.136 163.53 160.742 163.374 161.426 163.374H162.65C163.034 163.374 163.412 163.464 163.784 163.644C164.156 163.824 164.456 164.064 164.684 164.364V159.9H166.376V172.5H164.774V171.222C164.51 171.642 164.162 171.984 163.73 172.248C163.298 172.512 162.866 172.644 162.434 172.644H161.264ZM162.506 171.168C163.07 171.168 163.562 170.94 163.982 170.484C164.402 170.016 164.636 169.464 164.684 168.828V166.794C164.6 166.206 164.378 165.738 164.018 165.39C163.67 165.03 163.25 164.85 162.758 164.85H161.552C160.988 164.85 160.526 165.06 160.166 165.48C159.818 165.888 159.644 166.434 159.644 167.118V169.116C159.644 169.728 159.806 170.226 160.13 170.61C160.466 170.982 160.886 171.168 161.39 171.168H162.506ZM169.291 159.9H170.983V168.882H169.291V159.9ZM170.137 172.68C169.801 172.68 169.525 172.578 169.309 172.374C169.105 172.158 169.003 171.882 169.003 171.546C169.003 171.21 169.105 170.934 169.309 170.718C169.525 170.502 169.801 170.394 170.137 170.394C170.485 170.394 170.761 170.502 170.965 170.718C171.181 170.922 171.289 171.198 171.289 171.546C171.289 171.882 171.181 172.158 170.965 172.374C170.749 172.578 170.473 172.68 170.137 172.68Z" fill="black"/>
</svg>
