<svg width="162" height="179" viewBox="0 0 162 179" fill="none" xmlns="http://www.w3.org/2000/svg">
<rect x="14.75" y="5.5" width="132" height="132" rx="10" fill="white"/>
<path d="M23 14H27V18H23V14ZM27 14H31V18H27V14ZM31 14H35V18H31V14ZM35 14H39V18H35V14ZM39 14H43V18H39V14ZM43 14H47V18H43V14ZM47 14H51V18H47V14ZM55 14H59V18H55V14ZM67 14H71V18H67V14ZM75 14H79V18H75V14ZM83 14H87V18H83V14ZM87 14H91V18H87V14ZM91 14H95V18H91V14ZM95 14H99V18H95V14ZM103 14H107V18H103V14ZM111 14H115V18H111V14ZM115 14H119V18H115V14ZM119 14H123V18H119V14ZM123 14H127V18H123V14ZM127 14H131V18H127V14ZM131 14H135V18H131V14ZM135 14H139V18H135V14ZM23 18H27V22H23V18ZM47 18H51V22H47V18ZM75 18H79V22H75V18ZM111 18H115V22H111V18ZM135 18H139V22H135V18ZM23 22H27V26H23V22ZM31 22H35V26H31V22ZM35 22H39V26H35V22ZM39 22H43V26H39V22ZM47 22H51V26H47V22ZM55 22H59V26H55V22ZM71 22H75V26H71V22ZM83 22H87V26H83V22ZM87 22H91V26H87V22ZM91 22H95V26H91V22ZM99 22H103V26H99V22ZM111 22H115V26H111V22ZM119 22H123V26H119V22ZM123 22H127V26H123V22ZM127 22H131V26H127V22ZM135 22H139V26H135V22ZM23 26H27V30H23V26ZM31 26H35V30H31V26ZM35 26H39V30H35V26ZM39 26H43V30H39V26ZM47 26H51V30H47V26ZM55 26H59V30H55V26ZM63 26H67V30H63V26ZM71 26H75V30H71V26ZM75 26H79V30H75V26ZM79 26H83V30H79V26ZM87 26H91V30H87V26ZM95 26H99V30H95V26ZM111 26H115V30H111V26ZM119 26H123V30H119V26ZM123 26H127V30H123V26ZM127 26H131V30H127V26ZM135 26H139V30H135V26ZM23 30H27V34H23V30ZM31 30H35V34H31V30ZM35 30H39V34H35V30ZM39 30H43V34H39V30ZM47 30H51V34H47V30ZM59 30H63V34H59V30ZM63 30H67V34H63V30ZM75 30H79V34H75V30ZM79 30H83V34H79V30ZM91 30H95V34H91V30ZM95 30H99V34H95V30ZM111 30H115V34H111V30ZM119 30H123V34H119V30ZM123 30H127V34H123V30ZM127 30H131V34H127V30ZM135 30H139V34H135V30ZM23 34H27V38H23V34ZM47 34H51V38H47V34ZM55 34H59V38H55V34ZM59 34H63V38H59V34ZM63 34H67V38H63V34ZM67 34H71V38H67V34ZM75 34H79V38H75V34ZM91 34H95V38H91V34ZM95 34H99V38H95V34ZM99 34H103V38H99V34ZM111 34H115V38H111V34ZM135 34H139V38H135V34ZM23 38H27V42H23V38ZM27 38H31V42H27V38ZM31 38H35V42H31V38ZM35 38H39V42H35V38ZM39 38H43V42H39V38ZM43 38H47V42H43V38ZM47 38H51V42H47V38ZM55 38H59V42H55V38ZM63 38H67V42H63V38ZM71 38H75V42H71V38ZM103 38H107V42H103V38ZM111 38H115V42H111V38ZM115 38H119V42H115V38ZM119 38H123V42H119V38ZM123 38H127V42H123V38ZM127 38H131V42H127V38ZM131 38H135V42H131V38ZM135 38H139V42H135V38ZM55 42H59V46H55V42ZM59 42H63V46H59V42ZM63 42H67V46H63V42ZM27 46H31V50H27V46ZM35 46H39V50H35V46ZM43 46H47V50H43V46ZM47 46H51V50H47V46ZM51 46H55V50H51V46ZM55 46H59V50H55V46ZM107 46H111V50H107V46ZM111 46H115V50H111V46ZM115 46H119V50H115V46ZM123 46H127V50H123V46ZM127 46H131V50H127V46ZM135 46H139V50H135V46ZM27 50H31V54H27V50ZM43 50H47V54H43V50ZM51 50H55V54H51V50ZM111 50H115V54H111V50ZM123 50H127V54H123V50ZM135 50H139V54H135V50ZM27 54H31V58H27V54ZM31 54H35V58H31V54ZM43 54H47V58H43V54ZM47 54H51V58H47V54ZM51 54H55V58H51V54ZM55 54H59V58H55V54ZM59 54H63V58H59V54ZM111 54H115V58H111V54ZM119 54H123V58H119V54ZM123 54H127V58H123V54ZM127 54H131V58H127V54ZM131 54H135V58H131V54ZM31 58H35V62H31V58ZM35 58H39V62H35V58ZM39 58H43V62H39V58ZM51 58H55V62H51V58ZM111 58H115V62H111V58ZM115 58H119V62H115V58ZM119 58H123V62H119V58ZM127 58H131V62H127V58ZM131 58H135V62H131V58ZM27 62H31V66H27V62ZM35 62H39V66H35V62ZM43 62H47V66H43V62ZM47 62H51V66H47V62ZM51 62H55V66H51V62ZM111 62H115V66H111V62ZM115 62H119V66H115V62ZM27 66H31V70H27V66ZM31 66H35V70H31V66ZM39 66H43V70H39V66ZM43 66H47V70H43V66ZM51 66H55V70H51V66ZM55 66H59V70H55V66ZM115 66H119V70H115V66ZM123 66H127V70H123V66ZM35 70H39V74H35V70ZM47 70H51V74H47V70ZM111 70H115V74H111V70ZM131 70H135V74H131V70ZM135 70H139V74H135V70ZM35 74H39V78H35V74ZM39 74H43V78H39V74ZM43 74H47V78H43V74ZM55 74H59V78H55V74ZM111 74H115V78H111V74ZM115 74H119V78H115V74ZM131 74H135V78H131V74ZM135 74H139V78H135V74ZM23 78H27V82H23V78ZM31 78H35V82H31V78ZM35 78H39V82H35V78ZM39 78H43V82H39V78ZM43 78H47V82H43V78ZM47 78H51V82H47V78ZM55 78H59V82H55V78ZM59 78H63V82H59V78ZM131 78H135V82H131V78ZM27 82H31V86H27V82ZM35 82H39V86H35V82ZM107 82H111V86H107V82ZM111 82H115V86H111V82ZM115 82H119V86H115V82ZM123 82H127V86H123V82ZM131 82H135V86H131V82ZM135 82H139V86H135V82ZM23 86H27V90H23V86ZM39 86H43V90H39V86ZM47 86H51V90H47V86ZM59 86H63V90H59V86ZM63 86H67V90H63V86ZM103 86H107V90H103V86ZM107 86H111V90H107V86ZM115 86H119V90H115V86ZM119 86H123V90H119V86ZM123 86H127V90H123V86ZM127 86H131V90H127V86ZM131 86H135V90H131V86ZM135 86H139V90H135V86ZM35 90H39V94H35V90ZM43 90H47V94H43V90ZM51 90H55V94H51V90ZM55 90H59V94H55V90ZM63 90H67V94H63V90ZM75 90H79V94H75V90ZM91 90H95V94H91V90ZM95 90H99V94H95V90ZM123 90H127V94H123V90ZM23 94H27V98H23V94ZM35 94H39V98H35V94ZM39 94H43V98H39V94ZM47 94H51V98H47V94ZM51 94H55V98H51V94ZM59 94H63V98H59V94ZM63 94H67V98H63V94ZM67 94H71V98H67V94ZM71 94H75V98H71V94ZM75 94H79V98H75V94ZM79 94H83V98H79V94ZM95 94H99V98H95V94ZM99 94H103V98H99V94ZM103 94H107V98H103V94ZM107 94H111V98H107V94ZM111 94H115V98H111V94ZM115 94H119V98H115V94ZM119 94H123V98H119V94ZM123 94H127V98H123V94ZM127 94H131V98H127V94ZM55 98H59V102H55V98ZM63 98H67V102H63V98ZM75 98H79V102H75V98ZM103 98H107V102H103V98ZM119 98H123V102H119V98ZM135 98H139V102H135V98ZM23 102H27V106H23V102ZM27 102H31V106H27V102ZM31 102H35V106H31V102ZM35 102H39V106H35V102ZM39 102H43V106H39V102ZM43 102H47V106H43V102ZM47 102H51V106H47V102ZM55 102H59V106H55V102ZM59 102H63V106H59V102ZM75 102H79V106H75V102ZM91 102H95V106H91V102ZM103 102H107V106H103V102ZM111 102H115V106H111V102ZM119 102H123V106H119V102ZM123 102H127V106H123V102ZM127 102H131V106H127V102ZM131 102H135V106H131V102ZM23 106H27V110H23V106ZM47 106H51V110H47V106ZM55 106H59V110H55V106ZM63 106H67V110H63V106ZM67 106H71V110H67V106ZM71 106H75V110H71V106ZM91 106H95V110H91V106ZM103 106H107V110H103V106ZM119 106H123V110H119V106ZM127 106H131V110H127V106ZM23 110H27V114H23V110ZM31 110H35V114H31V110ZM35 110H39V114H35V110ZM39 110H43V114H39V110ZM47 110H51V114H47V110ZM63 110H67V114H63V110ZM71 110H75V114H71V110ZM75 110H79V114H75V110ZM79 110H83V114H79V110ZM103 110H107V114H103V110ZM107 110H111V114H107V110ZM111 110H115V114H111V110ZM115 110H119V114H115V110ZM119 110H123V114H119V110ZM123 110H127V114H123V110ZM131 110H135V114H131V110ZM135 110H139V114H135V110ZM23 114H27V118H23V114ZM31 114H35V118H31V114ZM35 114H39V118H35V114ZM39 114H43V118H39V114ZM47 114H51V118H47V114ZM55 114H59V118H55V114ZM59 114H63V118H59V114ZM67 114H71V118H67V114ZM71 114H75V118H71V114ZM99 114H103V118H99V114ZM103 114H107V118H103V114ZM107 114H111V118H107V114ZM111 114H115V118H111V114ZM119 114H123V118H119V114ZM127 114H131V118H127V114ZM135 114H139V118H135V114ZM23 118H27V122H23V118ZM31 118H35V122H31V118ZM35 118H39V122H35V118ZM39 118H43V122H39V118ZM47 118H51V122H47V118ZM59 118H63V122H59V118ZM63 118H67V122H63V118ZM67 118H71V122H67V118ZM71 118H75V122H71V118ZM79 118H83V122H79V118ZM99 118H103V122H99V118ZM103 118H107V122H103V118ZM119 118H123V122H119V118ZM135 118H139V122H135V118ZM23 122H27V126H23V122ZM47 122H51V126H47V122ZM55 122H59V126H55V122ZM63 122H67V126H63V122ZM91 122H95V126H91V122ZM103 122H107V126H103V122ZM111 122H115V126H111V122ZM115 122H119V126H115V122ZM131 122H135V126H131V122ZM23 126H27V130H23V126ZM27 126H31V130H27V126ZM31 126H35V130H31V126ZM35 126H39V130H35V126ZM39 126H43V130H39V126ZM43 126H47V130H43V126ZM47 126H51V130H47V126ZM63 126H67V130H63V126ZM71 126H75V130H71V126ZM91 126H95V130H91V126ZM103 126H107V130H103V126ZM111 126H115V130H111V126ZM119 126H123V130H119V126ZM123 126H127V130H123V126ZM131 126H135V130H131V126Z" fill="black"/>
<rect x="83" y="114" width="4" height="4" fill="#CC8866"/>
<rect x="87" y="114" width="4" height="4" fill="#CC8866"/>
<rect x="83" y="122" width="4" height="4" fill="#CC8866"/>
<rect x="83" y="106" width="4" height="4" fill="#CC8866"/>
<rect x="87" y="106" width="4" height="4" fill="#CC8866"/>
<rect x="83" y="94" width="4" height="4" fill="#CC8866"/>
<rect x="87" y="94" width="4" height="8" fill="#CC8866"/>
<rect x="83" y="86" width="8" height="4" fill="#F18343"/>
<rect x="95" y="86" width="4" height="4" fill="#F18343"/>
<rect x="71" y="82" width="28" height="4" fill="#F18343"/>
<rect x="71" y="78" width="4" height="4" fill="#F18343"/>
<rect x="79" y="78" width="4" height="4" fill="#F18343"/>
<rect x="95" y="78" width="8" height="4" fill="#F18343"/>
<rect x="67" y="74" width="8" height="4" fill="#F19C43"/>
<rect x="99" y="66" width="12" height="4" fill="#F19C43"/>
<rect x="91" y="66" width="4" height="4" fill="#F19C43"/>
<rect x="79" y="66" width="4" height="4" fill="#F19C43"/>
<rect x="63" y="66" width="8" height="8" fill="#F19C43"/>
<rect x="87" y="74" width="16" height="4" fill="#F19C43"/>
<rect x="79" y="70" width="20" height="4" fill="#F19C43"/>
<rect x="99" y="62" width="8" height="4" fill="#F1B443"/>
<rect x="95" y="58" width="16" height="4" fill="#F1B443"/>
<rect x="91" y="62" width="4" height="4" fill="#F1B443"/>
<rect x="71" y="54" width="4" height="4" fill="#F1B443"/>
<rect x="79" y="54" width="8" height="4" fill="#F1B443"/>
<rect x="79" y="58" width="8" height="4" fill="#F1B443"/>
<rect x="95" y="54" width="8" height="4" fill="#F1B443"/>
<rect x="75" y="62" width="4" height="4" fill="#F1B443"/>
<rect x="71" y="50" width="12" height="4" fill="#F1CD43"/>
<rect x="71" y="46" width="12" height="4" fill="#F1CD43"/>
<rect x="63" y="50" width="4" height="4" fill="#F1CD43"/>
<rect x="103" y="50" width="4" height="4" fill="#F1CD43"/>
<rect x="91" y="46" width="4" height="4" fill="#F1CD43"/>
<rect x="99" y="46" width="8" height="4" fill="#F1CD43"/>
<rect x="87" y="50" width="8" height="4" fill="#F1CD43"/>
<rect x="79" y="42" width="8" height="4" fill="#F1CD43"/>
<rect x="79" y="38" width="4" height="4" fill="#F1CD43"/>
<rect x="87" y="38" width="4" height="4" fill="#F1CD43"/>
<rect x="95" y="38" width="4" height="4" fill="#F1CD43"/>
<rect x="67" y="58" width="8" height="4" fill="#F1B443"/>
<rect x="59" y="62" width="4" height="4" fill="#F1B443"/>
<rect x="59" y="58" width="4" height="4" fill="#F1B443"/>
<path fill-rule="evenodd" clip-rule="evenodd" d="M19.75 2.5C14.7794 2.5 10.75 6.52944 10.75 11.5V22C10.75 22.5523 10.3023 23 9.75 23C9.19772 23 8.75 22.5523 8.75 22V11.5C8.75 5.42487 13.6749 0.5 19.75 0.5H30.25C30.8023 0.5 31.25 0.947715 31.25 1.5C31.25 2.05228 30.8023 2.5 30.25 2.5H19.75Z" fill="black"/>
<path fill-rule="evenodd" clip-rule="evenodd" d="M142.25 142C147.221 142 151.25 137.971 151.25 133V122.5C151.25 121.948 151.698 121.5 152.25 121.5C152.802 121.5 153.25 121.948 153.25 122.5V133C153.25 139.075 148.325 144 142.25 144H131.75C131.198 144 130.75 143.552 130.75 143C130.75 142.448 131.198 142 131.75 142H142.25Z" fill="black"/>
<path fill-rule="evenodd" clip-rule="evenodd" d="M11.25 133.5C11.25 138.471 15.2794 142.5 20.25 142.5H30.75C31.3023 142.5 31.75 142.948 31.75 143.5C31.75 144.052 31.3023 144.5 30.75 144.5H20.25C14.1749 144.5 9.25 139.575 9.25 133.5L9.25 123C9.25 122.448 9.69772 122 10.25 122C10.8023 122 11.25 122.448 11.25 123L11.25 133.5Z" fill="black"/>
<path fill-rule="evenodd" clip-rule="evenodd" d="M150.75 11C150.75 6.02944 146.721 2 141.75 2L131.25 2C130.698 2 130.25 1.55228 130.25 1C130.25 0.447715 130.698 0 131.25 0L141.75 0C147.825 0 152.75 4.92487 152.75 11V21.5C152.75 22.0523 152.302 22.5 151.75 22.5C151.198 22.5 150.75 22.0523 150.75 21.5V11Z" fill="black"/>
<path fill-rule="evenodd" clip-rule="evenodd" d="M18 157.5C16.8954 157.5 16 158.395 16 159.5C16 159.847 16.0886 160.174 16.2444 160.459C16.2545 160.474 16.2643 160.49 16.2737 160.506C16.283 160.522 16.2918 160.538 16.3002 160.554C16.6531 161.122 17.2824 161.5 18 161.5C19.1046 161.5 20 160.605 20 159.5C20 158.395 19.1046 157.5 18 157.5ZM15.1581 162.315C15.883 163.047 16.8886 163.5 18 163.5C20.2091 163.5 22 161.709 22 159.5C22 157.291 20.2091 155.5 18 155.5C15.7909 155.5 14 157.291 14 159.5C14 159.877 14.0522 160.242 14.1497 160.588L8.84197 163.685C8.11707 162.953 7.11147 162.5 6 162.5C3.79086 162.5 2 164.291 2 166.5C2 168.709 3.79086 170.5 6 170.5C7.11165 170.5 8.11739 170.047 8.84231 169.314L14.1509 172.408C14.0526 172.755 14 173.121 14 173.5C14 175.709 15.7909 177.5 18 177.5C20.2091 177.5 22 175.709 22 173.5C22 171.291 20.2091 169.5 18 169.5C16.8902 169.5 15.8859 169.952 15.1613 170.682L9.85049 167.587C9.94789 167.241 10 166.877 10 166.5C10 166.123 9.94784 165.758 9.85036 165.412L15.1581 162.315ZM7.69959 165.445C7.708 165.462 7.71691 165.478 7.72632 165.494C7.73579 165.51 7.74565 165.526 7.75588 165.542C7.91152 165.826 8 166.153 8 166.5C8 166.847 7.9114 167.174 7.75556 167.459C7.74533 167.474 7.73547 167.49 7.726 167.507C7.71682 167.522 7.70812 167.538 7.69989 167.554C7.34703 168.122 6.71765 168.5 6 168.5C4.89543 168.5 4 167.605 4 166.5C4 165.395 4.89543 164.5 6 164.5C6.71745 164.5 7.34667 164.878 7.69959 165.445ZM16 173.5C16 173.175 16.0776 172.868 16.2152 172.597C16.2399 172.564 16.2629 172.53 16.284 172.494C16.3042 172.459 16.3221 172.423 16.3378 172.387C16.6967 171.852 17.3072 171.5 18 171.5C19.1046 171.5 20 172.395 20 173.5C20 174.605 19.1046 175.5 18 175.5C16.8954 175.5 16 174.605 16 173.5Z" fill="black"/>
<path d="M34.402 168.9C34.978 168.9 35.44 169.074 35.788 169.422C36.136 169.758 36.31 170.208 36.31 170.772C36.31 171.336 36.124 171.792 35.752 172.14C35.392 172.488 34.912 172.662 34.312 172.662C33.712 172.662 33.232 172.488 32.872 172.14C32.512 171.792 32.332 171.336 32.332 170.772V162.582H34.006V168.936C34.174 168.912 34.306 168.9 34.402 168.9ZM39.496 168.9C40.06 168.9 40.516 169.074 40.864 169.422C41.212 169.758 41.386 170.208 41.386 170.772C41.386 171.336 41.206 171.792 40.846 172.14C40.486 172.488 40.006 172.662 39.406 172.662C38.818 172.662 38.338 172.488 37.966 172.14C37.606 171.792 37.426 171.336 37.426 170.772V162.582H39.1V168.936C39.268 168.912 39.4 168.9 39.496 168.9ZM34.312 171.618C34.576 171.618 34.786 171.54 34.942 171.384C35.098 171.228 35.176 171.024 35.176 170.772C35.176 170.508 35.098 170.304 34.942 170.16C34.786 170.004 34.576 169.926 34.312 169.926C34.06 169.926 33.856 170.004 33.7 170.16C33.544 170.304 33.466 170.508 33.466 170.772C33.466 171.024 33.544 171.228 33.7 171.384C33.856 171.54 34.06 171.618 34.312 171.618ZM39.406 171.618C39.67 171.618 39.874 171.54 40.018 171.384C40.174 171.228 40.252 171.024 40.252 170.772C40.252 170.508 40.174 170.304 40.018 170.16C39.874 170.004 39.67 169.926 39.406 169.926C39.142 169.926 38.932 170.004 38.776 170.16C38.632 170.304 38.56 170.508 38.56 170.772C38.56 171.024 38.632 171.228 38.776 171.384C38.932 171.54 39.142 171.618 39.406 171.618ZM50.8806 161.97C50.7726 162.846 50.5566 163.56 50.2326 164.112C49.9206 164.652 49.4826 165.066 48.9186 165.354C49.3026 165.486 49.6086 165.702 49.8366 166.002C50.0646 166.29 50.1786 166.614 50.1786 166.974V170.016C50.1786 170.796 49.9626 171.408 49.5306 171.852C49.1106 172.284 48.5166 172.5 47.7486 172.5H46.0206C45.6246 172.5 45.3126 172.392 45.0846 172.176C44.8566 171.948 44.7426 171.642 44.7426 171.258V168.54C44.7426 168.324 44.7906 168.126 44.8866 167.946C44.9826 167.754 45.1266 167.532 45.3186 167.28C45.5586 166.956 45.7386 166.668 45.8586 166.416C45.9786 166.164 46.0386 165.864 46.0386 165.516V164.976C46.0386 164.556 45.9186 164.22 45.6786 163.968C45.4386 163.704 45.1266 163.572 44.7426 163.572H44.3646C43.7406 163.572 43.3146 163.776 43.0866 164.184V164.202C43.2546 164.13 43.4406 164.094 43.6446 164.094C44.1246 164.094 44.5086 164.244 44.7966 164.544C45.0966 164.832 45.2466 165.216 45.2466 165.696C45.2466 166.212 45.0786 166.632 44.7426 166.956C44.4066 167.268 43.9686 167.424 43.4286 167.424C42.9006 167.424 42.4686 167.262 42.1326 166.938C41.7966 166.602 41.6286 166.164 41.6286 165.624V165.012C41.6286 164.22 41.8746 163.596 42.3666 163.14C42.8586 162.684 43.5306 162.456 44.3826 162.456H44.9226C45.6666 162.456 46.2606 162.678 46.7046 163.122C47.1606 163.554 47.4006 164.13 47.4246 164.85C47.9526 164.742 48.3786 164.448 48.7026 163.968C49.0266 163.476 49.2366 162.81 49.3326 161.97L49.3686 161.718H50.8986L50.8806 161.97ZM43.4286 164.904C43.1886 164.904 42.9966 164.976 42.8526 165.12C42.7086 165.264 42.6366 165.456 42.6366 165.696C42.6366 165.936 42.7086 166.128 42.8526 166.272C42.9966 166.416 43.1886 166.488 43.4286 166.488C43.6686 166.488 43.8606 166.416 44.0046 166.272C44.1486 166.128 44.2206 165.936 44.2206 165.696C44.2206 165.456 44.1486 165.264 44.0046 165.12C43.8606 164.976 43.6686 164.904 43.4286 164.904ZM48.5406 166.938C48.5406 166.302 48.1626 165.93 47.4066 165.822C47.3826 166.134 47.3226 166.41 47.2266 166.65C47.1306 166.89 46.9926 167.16 46.8126 167.46C46.6806 167.676 46.5786 167.862 46.5066 168.018C46.4466 168.162 46.4166 168.318 46.4166 168.486V171.114H47.6586C47.9466 171.114 48.1626 171.018 48.3066 170.826C48.4626 170.634 48.5406 170.358 48.5406 169.998V166.938ZM55.3653 163.86C54.9093 163.86 54.5493 163.998 54.2853 164.274C54.0213 164.538 53.8653 164.916 53.8173 165.408C56.0253 165.816 57.7833 166.398 59.0913 167.154V170.772C59.0913 171.348 58.9113 171.81 58.5513 172.158C58.1913 172.506 57.7113 172.68 57.1113 172.68C56.5113 172.68 56.0253 172.506 55.6533 172.158C55.2933 171.81 55.1133 171.348 55.1133 170.772C55.1133 170.22 55.2873 169.776 55.6353 169.44C55.9953 169.092 56.4573 168.918 57.0213 168.918C57.1173 168.918 57.2493 168.93 57.4173 168.954V167.82C56.3133 167.244 54.5553 166.764 52.1433 166.38C52.1433 165.12 52.4253 164.148 52.9893 163.464C53.5533 162.768 54.3453 162.42 55.3653 162.42C55.6773 162.42 55.9593 162.456 56.2113 162.528C56.4753 162.588 56.7693 162.684 57.0933 162.816C57.3933 162.936 57.6453 163.026 57.8493 163.086C58.0533 163.134 58.2693 163.158 58.4973 163.158C59.1453 163.158 59.6853 162.954 60.1173 162.546V163.986C59.7213 164.358 59.2053 164.544 58.5693 164.544C58.3053 164.544 58.0533 164.514 57.8133 164.454C57.5733 164.394 57.2973 164.31 56.9853 164.202C56.6133 164.082 56.3133 163.998 56.0853 163.95C55.8693 163.89 55.6293 163.86 55.3653 163.86ZM57.1113 171.636C57.3633 171.636 57.5673 171.558 57.7233 171.402C57.8793 171.246 57.9573 171.036 57.9573 170.772C57.9573 170.52 57.8793 170.316 57.7233 170.16C57.5673 170.004 57.3633 169.926 57.1113 169.926C56.8473 169.926 56.6373 170.004 56.4813 170.16C56.3253 170.316 56.2473 170.52 56.2473 170.772C56.2473 171.036 56.3253 171.246 56.4813 171.402C56.6373 171.558 56.8473 171.636 57.1113 171.636ZM61.2486 156.372C61.1766 157.14 60.9246 157.74 60.4926 158.172C60.0606 158.604 59.4906 158.82 58.7826 158.82H58.2066C58.2906 159.012 58.3326 159.198 58.3326 159.378C58.3326 159.894 58.1646 160.314 57.8286 160.638C57.4926 160.95 57.0486 161.106 56.4966 161.106C55.9446 161.106 55.5006 160.944 55.1646 160.62C54.8166 160.296 54.6426 159.87 54.6426 159.342C54.6426 158.802 54.8106 158.37 55.1466 158.046C55.4826 157.722 55.9326 157.56 56.4966 157.56H58.6206C58.9326 157.56 59.1966 157.458 59.4126 157.254C59.6166 157.038 59.7486 156.744 59.8086 156.372H61.2486ZM56.4966 160.134C56.7366 160.134 56.9346 160.062 57.0906 159.918C57.2346 159.774 57.3066 159.582 57.3066 159.342C57.3066 159.102 57.2346 158.91 57.0906 158.766C56.9346 158.61 56.7366 158.532 56.4966 158.532C56.2566 158.532 56.0646 158.61 55.9206 158.766C55.7646 158.91 55.6866 159.102 55.6866 159.342C55.6866 159.582 55.7646 159.774 55.9206 159.918C56.0646 160.062 56.2566 160.134 56.4966 160.134ZM63.2806 156.93C62.8726 156.93 62.5486 157.05 62.3086 157.29C62.0806 157.518 61.9546 157.842 61.9306 158.262C62.7106 158.526 63.3946 158.82 63.9826 159.144C64.5706 159.468 65.0026 159.792 65.2786 160.116V168.936C65.4226 168.912 65.5486 168.9 65.6566 168.9C66.2326 168.9 66.6946 169.074 67.0426 169.422C67.3906 169.758 67.5646 170.208 67.5646 170.772C67.5646 171.336 67.3786 171.792 67.0066 172.14C66.6466 172.488 66.1666 172.662 65.5666 172.662C64.9786 172.662 64.4986 172.488 64.1266 172.14C63.7666 171.792 63.5866 171.336 63.5866 170.772V160.638C63.2386 160.35 62.7766 160.074 62.2006 159.81C61.6246 159.534 60.9826 159.3 60.2746 159.108C60.2746 157.956 60.5326 157.068 61.0486 156.444C61.5766 155.82 62.3206 155.508 63.2806 155.508C63.5926 155.508 63.8686 155.544 64.1086 155.616C64.3486 155.688 64.6306 155.79 64.9546 155.922C65.2066 156.042 65.4286 156.132 65.6206 156.192C65.8246 156.252 66.0346 156.282 66.2506 156.282C66.8146 156.282 67.3006 156.066 67.7086 155.634V157.11C67.5286 157.29 67.3066 157.434 67.0426 157.542C66.7906 157.638 66.5266 157.686 66.2506 157.686C65.9746 157.686 65.7226 157.656 65.4946 157.596C65.2786 157.524 65.0146 157.422 64.7026 157.29C64.4266 157.17 64.1806 157.08 63.9646 157.02C63.7486 156.96 63.5206 156.93 63.2806 156.93ZM66.4306 170.772C66.4306 170.508 66.3526 170.304 66.1966 170.16C66.0406 170.004 65.8306 169.926 65.5666 169.926C65.3146 169.926 65.1106 170.004 64.9546 170.16C64.7986 170.304 64.7206 170.508 64.7206 170.772C64.7206 171.024 64.7986 171.228 64.9546 171.384C65.1106 171.54 65.3146 171.618 65.5666 171.618C65.8306 171.618 66.0406 171.54 66.1966 171.384C66.3526 171.228 66.4306 171.024 66.4306 170.772ZM74.8047 162.456C75.8127 162.456 76.6287 162.768 77.2527 163.392C77.8767 164.004 78.1887 164.82 78.1887 165.84V172.5H76.5147V165.84C76.5147 165.264 76.3587 164.802 76.0467 164.454C75.7347 164.106 75.3207 163.932 74.8047 163.932H72.8607C72.2967 163.932 71.8407 164.106 71.4927 164.454C71.1447 164.802 70.9707 165.264 70.9707 165.84V170.088H71.0067L71.9607 167.766C72.1887 167.226 72.4467 166.842 72.7347 166.614C73.0227 166.374 73.3827 166.254 73.8147 166.254C74.3787 166.254 74.8287 166.416 75.1647 166.74C75.5007 167.064 75.6687 167.496 75.6687 168.036C75.6687 168.564 75.5007 168.996 75.1647 169.332C74.8287 169.656 74.3847 169.818 73.8327 169.818C73.5807 169.818 73.3407 169.77 73.1127 169.674C72.8967 169.566 72.7227 169.428 72.5907 169.26L71.1147 172.5H69.3867V165.84C69.3867 164.82 69.7047 164.004 70.3407 163.392C70.9767 162.768 71.8167 162.456 72.8607 162.456H74.8047ZM73.8147 167.208C73.5627 167.208 73.3587 167.286 73.2027 167.442C73.0587 167.586 72.9867 167.784 72.9867 168.036C72.9867 168.288 73.0587 168.492 73.2027 168.648C73.3587 168.804 73.5627 168.882 73.8147 168.882C74.0667 168.882 74.2707 168.804 74.4267 168.648C74.5827 168.492 74.6607 168.288 74.6607 168.036C74.6607 167.784 74.5827 167.586 74.4267 167.442C74.2707 167.286 74.0667 167.208 73.8147 167.208ZM79.4118 156.894C79.3158 158.238 78.8658 159.276 78.0618 160.008C77.2458 160.74 76.1358 161.106 74.7318 161.106C73.7478 161.106 72.9738 161.046 72.4098 160.926V160.17C73.3338 160.134 73.9518 159.93 74.2638 159.558C74.1198 159.582 74.0118 159.594 73.9398 159.594C73.4838 159.594 73.1178 159.462 72.8418 159.198C72.5538 158.934 72.4098 158.586 72.4098 158.154C72.4098 157.686 72.5658 157.308 72.8778 157.02C73.1778 156.732 73.5738 156.588 74.0658 156.588C74.5578 156.588 74.9598 156.732 75.2718 157.02C75.5718 157.308 75.7218 157.686 75.7218 158.154C75.7218 158.478 75.6738 158.796 75.5778 159.108C75.4698 159.42 75.3258 159.696 75.1458 159.936V159.954C75.9858 159.894 76.6458 159.606 77.1258 159.09C77.5938 158.562 77.8758 157.83 77.9718 156.894H79.4118ZM73.3638 158.154C73.3638 158.358 73.4298 158.52 73.5618 158.64C73.6818 158.76 73.8438 158.82 74.0478 158.82C74.2518 158.82 74.4198 158.76 74.5518 158.64C74.6838 158.52 74.7498 158.358 74.7498 158.154C74.7498 157.95 74.6838 157.788 74.5518 157.668C74.4198 157.536 74.2518 157.47 74.0478 157.47C73.8438 157.47 73.6818 157.536 73.5618 157.668C73.4298 157.788 73.3638 157.95 73.3638 158.154ZM86.2656 162.456C87.2856 162.456 88.1076 162.768 88.7316 163.392C89.3676 164.004 89.6856 164.82 89.6856 165.84V172.5H88.0296V165.84C88.0296 165.264 87.8676 164.802 87.5436 164.454C87.2196 164.106 86.7936 163.932 86.2656 163.932H84.3396C83.7876 163.932 83.3376 164.112 82.9896 164.472C82.6536 164.832 82.4856 165.312 82.4856 165.912V171.186H82.7196C83.3196 171.186 83.8596 171.048 84.3396 170.772C84.8196 170.496 85.1796 170.124 85.4196 169.656C85.2756 169.68 85.1616 169.692 85.0776 169.692C84.5616 169.692 84.1416 169.536 83.8176 169.224C83.4936 168.9 83.3316 168.474 83.3316 167.946C83.3316 167.394 83.5056 166.956 83.8536 166.632C84.2016 166.296 84.6576 166.128 85.2216 166.128C85.7856 166.128 86.2356 166.296 86.5716 166.632C86.9196 166.968 87.0936 167.424 87.0936 168C87.0936 168.828 86.8896 169.584 86.4816 170.268C86.0856 170.94 85.5336 171.48 84.8256 171.888C84.1176 172.284 83.3256 172.488 82.4496 172.5H80.8476V165.912C80.8476 164.88 81.1656 164.046 81.8016 163.41C82.4496 162.774 83.2956 162.456 84.3396 162.456H86.2656ZM84.3936 167.946C84.3936 168.198 84.4656 168.402 84.6096 168.558C84.7656 168.702 84.9696 168.774 85.2216 168.774C85.4736 168.774 85.6716 168.702 85.8156 168.558C85.9716 168.402 86.0496 168.198 86.0496 167.946C86.0496 167.694 85.9716 167.49 85.8156 167.334C85.6716 167.178 85.4736 167.1 85.2216 167.1C84.9696 167.1 84.7656 167.178 84.6096 167.334C84.4656 167.49 84.3936 167.694 84.3936 167.946ZM97.7617 162.456C98.7817 162.456 99.6037 162.768 100.228 163.392C100.864 164.004 101.182 164.82 101.182 165.84V172.5H99.5257V165.84C99.5257 165.264 99.3637 164.802 99.0397 164.454C98.7157 164.106 98.2897 163.932 97.7617 163.932H95.8357C95.2837 163.932 94.8337 164.112 94.4857 164.472C94.1497 164.832 93.9817 165.312 93.9817 165.912V171.186H94.2157C94.8157 171.186 95.3557 171.048 95.8357 170.772C96.3157 170.496 96.6757 170.124 96.9157 169.656C96.7717 169.68 96.6577 169.692 96.5737 169.692C96.0577 169.692 95.6377 169.536 95.3137 169.224C94.9897 168.9 94.8277 168.474 94.8277 167.946C94.8277 167.394 95.0017 166.956 95.3497 166.632C95.6977 166.296 96.1537 166.128 96.7177 166.128C97.2817 166.128 97.7317 166.296 98.0677 166.632C98.4157 166.968 98.5897 167.424 98.5897 168C98.5897 168.828 98.3857 169.584 97.9777 170.268C97.5817 170.94 97.0297 171.48 96.3217 171.888C95.6137 172.284 94.8217 172.488 93.9457 172.5H92.3437V165.912C92.3437 164.88 92.6617 164.046 93.2977 163.41C93.9457 162.774 94.7917 162.456 95.8357 162.456H97.7617ZM95.8897 167.946C95.8897 168.198 95.9617 168.402 96.1057 168.558C96.2617 168.702 96.4657 168.774 96.7177 168.774C96.9697 168.774 97.1677 168.702 97.3117 168.558C97.4677 168.402 97.5457 168.198 97.5457 167.946C97.5457 167.694 97.4677 167.49 97.3117 167.334C97.1677 167.178 96.9697 167.1 96.7177 167.1C96.4657 167.1 96.2617 167.178 96.1057 167.334C95.9617 167.49 95.8897 167.694 95.8897 167.946ZM101 161.214C99.56 160.818 98.276 160.56 97.148 160.44C96.02 160.32 94.586 160.26 92.846 160.26C93.038 159.228 93.506 158.412 94.25 157.812C94.994 157.212 95.9 156.912 96.968 156.912C97.772 156.912 98.48 157.092 99.092 157.452C99.704 157.8 100.178 158.298 100.514 158.946C100.838 159.594 101 160.35 101 161.214ZM99.434 159.792C99.338 159.264 99.068 158.844 98.624 158.532C98.168 158.22 97.592 158.064 96.896 158.064C96.356 158.064 95.894 158.172 95.51 158.388C95.114 158.592 94.826 158.892 94.646 159.288C95.45 159.264 96.278 159.3 97.13 159.396C97.97 159.48 98.738 159.612 99.434 159.792ZM103.034 152.242C102.95 153.502 102.548 154.468 101.828 155.14C101.108 155.812 100.124 156.148 98.876 156.148C97.88 156.148 97.136 156.088 96.644 155.968V155.284C97.088 155.26 97.448 155.218 97.724 155.158C98 155.086 98.216 154.972 98.372 154.816C98.312 154.828 98.216 154.834 98.084 154.834C97.664 154.834 97.322 154.714 97.058 154.474C96.794 154.222 96.662 153.898 96.662 153.502C96.662 153.058 96.806 152.704 97.094 152.44C97.37 152.176 97.742 152.044 98.21 152.044C98.678 152.044 99.056 152.176 99.344 152.44C99.632 152.692 99.776 153.04 99.776 153.484C99.776 153.772 99.734 154.054 99.65 154.33C99.554 154.606 99.422 154.846 99.254 155.05L99.272 155.068C99.992 155.044 100.55 154.798 100.946 154.33C101.33 153.862 101.57 153.166 101.666 152.242H103.034ZM97.562 153.502C97.562 153.694 97.622 153.85 97.742 153.97C97.85 154.09 98.006 154.15 98.21 154.15C98.402 154.15 98.558 154.09 98.678 153.97C98.798 153.85 98.858 153.694 98.858 153.502C98.858 153.31 98.798 153.154 98.678 153.034C98.558 152.914 98.402 152.854 98.21 152.854C98.018 152.854 97.862 152.914 97.742 153.034C97.622 153.154 97.562 153.31 97.562 153.502ZM108.484 162.42C109.084 162.42 109.564 162.594 109.924 162.942C110.296 163.29 110.482 163.752 110.482 164.328V170.322C110.482 171.006 110.296 171.54 109.924 171.924C109.564 172.308 109.066 172.5 108.43 172.5H107.44C107.164 172.5 106.918 172.434 106.702 172.302C106.486 172.17 106.312 171.978 106.18 171.726L102.976 166.002H104.776L107.602 171.078H108.178C108.37 171.078 108.52 171.012 108.628 170.88C108.736 170.736 108.79 170.532 108.79 170.268V166.146C108.67 166.182 108.538 166.2 108.394 166.2C107.83 166.2 107.374 166.032 107.026 165.696C106.678 165.348 106.504 164.892 106.504 164.328C106.504 163.752 106.684 163.29 107.044 162.942C107.404 162.594 107.884 162.42 108.484 162.42ZM108.484 165.174C108.748 165.174 108.958 165.096 109.114 164.94C109.27 164.784 109.348 164.58 109.348 164.328C109.348 164.064 109.27 163.854 109.114 163.698C108.958 163.542 108.748 163.464 108.484 163.464C108.232 163.464 108.028 163.542 107.872 163.698C107.716 163.854 107.638 164.064 107.638 164.328C107.638 164.58 107.716 164.784 107.872 164.94C108.028 165.096 108.232 165.174 108.484 165.174ZM127.153 158.784V169.908C127.153 170.712 126.937 171.348 126.505 171.816C126.073 172.272 125.461 172.5 124.669 172.5H120.691C120.295 172.5 119.983 172.392 119.755 172.176C119.527 171.948 119.413 171.642 119.413 171.258V166.164C119.245 166.188 119.113 166.2 119.017 166.2C118.453 166.2 117.997 166.032 117.649 165.696C117.301 165.348 117.127 164.892 117.127 164.328C117.127 163.752 117.307 163.29 117.667 162.942C118.027 162.594 118.507 162.42 119.107 162.42C119.707 162.42 120.187 162.594 120.547 162.942C120.907 163.29 121.087 163.752 121.087 164.328V171.024H124.417C124.789 171.024 125.059 170.928 125.227 170.736C125.395 170.544 125.479 170.256 125.479 169.872V158.784H127.153ZM118.261 164.328C118.261 164.58 118.333 164.784 118.477 164.94C118.633 165.096 118.843 165.174 119.107 165.174C119.371 165.174 119.575 165.096 119.719 164.94C119.875 164.784 119.953 164.58 119.953 164.328C119.953 164.064 119.875 163.854 119.719 163.698C119.575 163.542 119.371 163.464 119.107 163.464C118.843 163.464 118.633 163.542 118.477 163.698C118.333 163.854 118.261 164.064 118.261 164.328ZM124.636 161.196C123.16 160.8 121.918 160.548 120.91 160.44C119.89 160.32 118.54 160.26 116.86 160.26C117.052 159.204 117.496 158.382 118.192 157.794C118.888 157.206 119.764 156.912 120.82 156.912C121.588 156.912 122.26 157.086 122.836 157.434C123.412 157.782 123.856 158.28 124.168 158.928C124.48 159.576 124.636 160.332 124.636 161.196ZM123.106 159.774C123.022 159.246 122.77 158.832 122.35 158.532C121.918 158.22 121.384 158.064 120.748 158.064C120.244 158.064 119.8 158.178 119.416 158.406C119.032 158.622 118.762 158.916 118.606 159.288C119.362 159.276 120.136 159.312 120.928 159.396C121.708 159.48 122.434 159.606 123.106 159.774ZM126.677 152.242C126.593 153.502 126.191 154.468 125.471 155.14C124.751 155.812 123.767 156.148 122.519 156.148C121.523 156.148 120.779 156.088 120.287 155.968V155.284C120.731 155.26 121.091 155.218 121.367 155.158C121.643 155.086 121.859 154.972 122.015 154.816C121.955 154.828 121.859 154.834 121.727 154.834C121.307 154.834 120.965 154.714 120.701 154.474C120.437 154.222 120.305 153.898 120.305 153.502C120.305 153.058 120.449 152.704 120.737 152.44C121.013 152.176 121.385 152.044 121.853 152.044C122.321 152.044 122.699 152.176 122.987 152.44C123.275 152.692 123.419 153.04 123.419 153.484C123.419 153.772 123.377 154.054 123.293 154.33C123.197 154.606 123.065 154.846 122.897 155.05L122.915 155.068C123.635 155.044 124.193 154.798 124.589 154.33C124.973 153.862 125.213 153.166 125.309 152.242H126.677ZM121.205 153.502C121.205 153.694 121.265 153.85 121.385 153.97C121.493 154.09 121.649 154.15 121.853 154.15C122.045 154.15 122.201 154.09 122.321 153.97C122.441 153.85 122.501 153.694 122.501 153.502C122.501 153.31 122.441 153.154 122.321 153.034C122.201 152.914 122.045 152.854 121.853 152.854C121.661 152.854 121.505 152.914 121.385 153.034C121.265 153.154 121.205 153.31 121.205 153.502ZM134.464 162.42C135.064 162.42 135.544 162.594 135.904 162.942C136.276 163.29 136.462 163.752 136.462 164.328V170.322C136.462 171.006 136.276 171.54 135.904 171.924C135.544 172.308 135.046 172.5 134.41 172.5H133.42C133.144 172.5 132.898 172.434 132.682 172.302C132.466 172.17 132.292 171.978 132.16 171.726L128.956 166.002H130.756L133.582 171.078H134.158C134.35 171.078 134.5 171.012 134.608 170.88C134.716 170.736 134.77 170.532 134.77 170.268V166.146C134.65 166.182 134.518 166.2 134.374 166.2C133.81 166.2 133.354 166.032 133.006 165.696C132.658 165.348 132.484 164.892 132.484 164.328C132.484 163.752 132.664 163.29 133.024 162.942C133.384 162.594 133.864 162.42 134.464 162.42ZM134.464 165.174C134.728 165.174 134.938 165.096 135.094 164.94C135.25 164.784 135.328 164.58 135.328 164.328C135.328 164.064 135.25 163.854 135.094 163.698C134.938 163.542 134.728 163.464 134.464 163.464C134.212 163.464 134.008 163.542 133.852 163.698C133.696 163.854 133.618 164.064 133.618 164.328C133.618 164.58 133.696 164.784 133.852 164.94C134.008 165.096 134.212 165.174 134.464 165.174ZM143.331 168.9C143.895 168.9 144.351 169.074 144.699 169.422C145.047 169.758 145.221 170.208 145.221 170.772C145.221 171.336 145.041 171.792 144.681 172.14C144.321 172.488 143.841 172.662 143.241 172.662C142.653 172.662 142.173 172.488 141.801 172.14C141.441 171.792 141.261 171.336 141.261 170.772V157.398L139.353 159.954H139.065C138.909 159.954 138.783 159.918 138.687 159.846C138.603 159.774 138.513 159.66 138.417 159.504L136.185 155.598H137.715L139.155 158.226L141.189 155.508H141.477C142.449 155.508 142.935 155.97 142.935 156.894V168.936C143.103 168.912 143.235 168.9 143.331 168.9ZM143.241 171.618C143.505 171.618 143.709 171.54 143.853 171.384C144.009 171.228 144.087 171.024 144.087 170.772C144.087 170.508 144.009 170.304 143.853 170.16C143.709 170.004 143.505 169.926 143.241 169.926C142.977 169.926 142.767 170.004 142.611 170.16C142.467 170.304 142.395 170.508 142.395 170.772C142.395 171.024 142.467 171.228 142.611 171.384C142.767 171.54 142.977 171.618 143.241 171.618ZM147.592 167.784C147.592 167.376 147.466 167.04 147.214 166.776C146.962 166.5 146.608 166.314 146.152 166.218C146.248 165.534 146.476 164.904 146.836 164.328C147.208 163.752 147.67 163.296 148.222 162.96C148.786 162.624 149.392 162.456 150.04 162.456H152.2C153.1 162.456 153.826 162.732 154.378 163.284C154.93 163.824 155.206 164.538 155.206 165.426V172.5H153.532V165.48C153.532 165.012 153.388 164.64 153.1 164.364C152.824 164.076 152.446 163.932 151.966 163.932H150.04C149.596 163.932 149.182 164.094 148.798 164.418C148.426 164.73 148.144 165.15 147.952 165.678C148.36 165.87 148.678 166.158 148.906 166.542C149.146 166.914 149.266 167.328 149.266 167.784V172.5H147.592V167.784ZM153.362 157.326H155.018V161.016H153.362V157.326ZM158.199 159.9H159.891V168.882H158.199V159.9ZM159.045 172.68C158.709 172.68 158.433 172.578 158.217 172.374C158.013 172.158 157.911 171.882 157.911 171.546C157.911 171.21 158.013 170.934 158.217 170.718C158.433 170.502 158.709 170.394 159.045 170.394C159.393 170.394 159.669 170.502 159.873 170.718C160.089 170.922 160.197 171.198 160.197 171.546C160.197 171.882 160.089 172.158 159.873 172.374C159.657 172.578 159.381 172.68 159.045 172.68Z" fill="black"/>
</svg>
